<svg width="300" height="300" viewBox="0 0 300 300" fill="none" xmlns="http://www.w3.org/2000/svg">
<g clip-path="url(#clip0)">
<path opacity="0.1" d="M104.988 50.6009C112.473 43.9379 124.223 42.572 134.92 43.1025C168.514 44.7734 198.838 60.9901 225.07 79.3364C234.568 85.9763 243.916 93.1339 250.079 102.28C262.637 120.898 258.905 146.689 241.459 162.027C235.521 167.244 228.325 171.252 220.937 174.792C207.8 181.096 193.626 186.157 178.716 187.605C168.086 188.63 157.323 187.797 146.752 186.365C117.222 182.351 88.2404 173.495 63.9384 158.344C53.2828 151.699 43.2396 143.437 38.8471 132.692C34.4547 121.946 37.2659 108.313 48.1471 101.939C52.6472 99.3074 58.0289 98.1184 63.2952 97.001C71.0499 95.3583 78.9276 93.7387 85.9238 90.3995C93.1531 86.9501 101.71 80.2795 100.275 72.6426C98.7475 64.46 97.5123 57.2639 104.988 50.6009Z" fill="#1E7CF7"/>
<path d="M197.531 214.416C197.531 214.416 203.954 203.04 213.623 199.762C217.688 198.413 221.205 195.782 223.648 192.264C224.795 190.585 225.784 188.804 226.605 186.944" stroke="#535461" stroke-width="2" stroke-miterlimit="10"/>
<path d="M232.689 184.84C231.587 185.911 226.454 187.016 226.454 187.016C226.454 187.016 227.712 181.918 228.814 180.85C229.343 180.336 230.055 180.053 230.792 180.064C231.53 180.075 232.233 180.378 232.747 180.907C233.261 181.436 233.543 182.148 233.532 182.886C233.522 183.623 233.218 184.326 232.689 184.84Z" fill="#1E7CF7"/>
<path d="M229.786 194.063C228.279 194.363 223.379 192.502 223.379 192.502C223.379 192.502 227.207 188.914 228.712 188.607C229.435 188.463 230.186 188.613 230.799 189.023C231.413 189.433 231.838 190.069 231.982 190.793C232.126 191.516 231.976 192.267 231.566 192.881C231.156 193.494 230.519 193.919 229.796 194.063H229.786Z" fill="#1E7CF7"/>
<path d="M219.214 204.042C217.761 203.53 214.463 199.455 214.463 199.455C214.463 199.455 219.589 198.286 221.034 198.789C221.386 198.902 221.713 199.085 221.994 199.326C222.275 199.567 222.505 199.862 222.67 200.193C222.835 200.525 222.933 200.886 222.957 201.255C222.981 201.625 222.931 201.995 222.81 202.345C222.688 202.695 222.499 203.017 222.251 203.293C222.004 203.569 221.704 203.792 221.369 203.95C221.034 204.108 220.671 204.198 220.301 204.213C219.931 204.229 219.562 204.171 219.214 204.042Z" fill="#1E7CF7"/>
<path d="M209.515 209.793C208 209.536 204.059 206.074 204.059 206.074C204.059 206.074 208.905 204.055 210.419 204.306C210.782 204.362 211.13 204.49 211.444 204.682C211.757 204.874 212.029 205.125 212.245 205.423C212.46 205.721 212.614 206.058 212.699 206.415C212.783 206.773 212.796 207.143 212.736 207.506C212.676 207.868 212.545 208.215 212.351 208.527C212.156 208.838 211.902 209.108 211.602 209.321C211.303 209.534 210.964 209.685 210.606 209.766C210.247 209.847 209.876 209.856 209.515 209.793Z" fill="#1E7CF7"/>
<path d="M219.089 188.52C219.089 190.057 221.867 194.509 221.867 194.509C221.867 194.509 224.65 190.057 224.65 188.522C224.65 187.785 224.357 187.078 223.836 186.556C223.314 186.035 222.607 185.742 221.869 185.742C221.132 185.742 220.425 186.035 219.903 186.556C219.382 187.078 219.089 187.785 219.089 188.522V188.52Z" fill="#1E7CF7"/>
<path d="M207.831 195.388C208.292 196.854 212.275 200.272 212.275 200.272C212.275 200.272 213.597 195.191 213.138 193.725C212.918 193.021 212.427 192.434 211.773 192.092C211.119 191.75 210.357 191.682 209.653 191.903C208.949 192.123 208.362 192.614 208.02 193.268C207.678 193.921 207.61 194.684 207.831 195.388Z" fill="#1E7CF7"/>
<path d="M197.806 203.563C198.011 205.085 201.36 209.129 201.36 209.129C201.36 209.129 203.523 204.344 203.318 202.822C203.22 202.091 202.835 201.429 202.249 200.982C201.663 200.534 200.923 200.338 200.192 200.436C199.461 200.535 198.799 200.919 198.351 201.505C197.904 202.092 197.707 202.832 197.806 203.563Z" fill="#1E7CF7"/>
<path opacity="0.25" d="M232.689 184.84C231.587 185.911 226.454 187.016 226.454 187.016C226.454 187.016 227.712 181.918 228.814 180.85C229.343 180.336 230.055 180.053 230.792 180.064C231.53 180.075 232.233 180.378 232.747 180.907C233.261 181.436 233.543 182.148 233.532 182.886C233.522 183.623 233.218 184.326 232.689 184.84Z" fill="black"/>
<path opacity="0.25" d="M229.786 194.063C228.279 194.363 223.379 192.502 223.379 192.502C223.379 192.502 227.207 188.914 228.712 188.607C229.435 188.463 230.186 188.613 230.799 189.023C231.413 189.433 231.838 190.069 231.982 190.793C232.126 191.516 231.976 192.267 231.566 192.881C231.156 193.494 230.519 193.919 229.796 194.063H229.786Z" fill="black"/>
<path opacity="0.25" d="M219.214 204.042C217.761 203.53 214.463 199.455 214.463 199.455C214.463 199.455 219.589 198.286 221.034 198.789C221.386 198.902 221.713 199.085 221.994 199.326C222.275 199.567 222.505 199.862 222.67 200.193C222.835 200.525 222.933 200.886 222.957 201.255C222.981 201.625 222.931 201.995 222.81 202.345C222.688 202.695 222.499 203.017 222.251 203.293C222.004 203.569 221.704 203.792 221.369 203.95C221.034 204.108 220.671 204.198 220.301 204.213C219.931 204.229 219.562 204.171 219.214 204.042Z" fill="black"/>
<path opacity="0.25" d="M209.515 209.793C208 209.536 204.059 206.074 204.059 206.074C204.059 206.074 208.905 204.055 210.419 204.306C210.782 204.362 211.13 204.49 211.444 204.682C211.757 204.874 212.029 205.125 212.245 205.423C212.46 205.721 212.614 206.058 212.699 206.415C212.783 206.773 212.796 207.143 212.736 207.506C212.676 207.868 212.545 208.215 212.351 208.527C212.156 208.838 211.902 209.108 211.602 209.321C211.303 209.534 210.964 209.685 210.606 209.766C210.247 209.847 209.876 209.856 209.515 209.793Z" fill="black"/>
<path opacity="0.25" d="M219.089 188.52C219.089 190.057 221.867 194.509 221.867 194.509C221.867 194.509 224.65 190.057 224.65 188.522C224.65 187.785 224.357 187.078 223.836 186.556C223.314 186.035 222.607 185.742 221.869 185.742C221.132 185.742 220.425 186.035 219.903 186.556C219.382 187.078 219.089 187.785 219.089 188.522V188.52Z" fill="black"/>
<path opacity="0.25" d="M207.831 195.388C208.292 196.854 212.275 200.272 212.275 200.272C212.275 200.272 213.597 195.191 213.138 193.725C212.918 193.021 212.427 192.434 211.773 192.092C211.119 191.75 210.357 191.682 209.653 191.903C208.949 192.123 208.362 192.614 208.02 193.268C207.678 193.921 207.61 194.684 207.831 195.388Z" fill="black"/>
<path opacity="0.25" d="M197.806 203.563C198.011 205.085 201.36 209.129 201.36 209.129C201.36 209.129 203.523 204.344 203.318 202.822C203.22 202.091 202.835 201.429 202.249 200.982C201.663 200.534 200.923 200.338 200.192 200.436C199.461 200.535 198.799 200.919 198.351 201.505C197.904 202.092 197.707 202.832 197.806 203.563Z" fill="black"/>
<path d="M197.901 214.185C197.901 214.185 199.161 201.182 206.675 194.268C209.844 191.387 211.994 187.555 212.8 183.348C213.169 181.348 213.352 179.317 213.348 177.282" stroke="#535461" stroke-width="2" stroke-miterlimit="10"/>
<path d="M218.056 172.905C217.482 174.33 213.238 177.421 213.238 177.421C213.238 177.421 212.326 172.249 212.9 170.827C213.03 170.479 213.228 170.161 213.483 169.892C213.738 169.622 214.044 169.406 214.384 169.256C214.723 169.107 215.089 169.026 215.46 169.021C215.831 169.015 216.2 169.083 216.544 169.222C216.888 169.361 217.201 169.567 217.464 169.828C217.727 170.09 217.936 170.401 218.077 170.745C218.218 171.088 218.288 171.456 218.285 171.827C218.281 172.198 218.204 172.565 218.056 172.905Z" fill="#1E7CF7"/>
<path d="M219.14 182.513C217.884 183.397 212.641 183.684 212.641 183.684C212.641 183.684 214.691 178.848 215.939 177.964C216.238 177.754 216.575 177.605 216.932 177.525C217.288 177.445 217.656 177.436 218.016 177.499C218.376 177.561 218.72 177.694 219.029 177.89C219.337 178.085 219.604 178.339 219.814 178.638C220.024 178.937 220.174 179.274 220.253 179.63C220.333 179.987 220.342 180.355 220.28 180.715C220.217 181.075 220.084 181.419 219.889 181.727C219.693 182.036 219.439 182.303 219.14 182.513Z" fill="#1E7CF7"/>
<path d="M213.52 195.921C211.983 196.049 207.318 193.65 207.318 193.65C207.318 193.65 211.524 190.508 213.043 190.378C213.779 190.316 214.508 190.549 215.072 191.025C215.635 191.501 215.986 192.181 216.048 192.916C216.11 193.651 215.877 194.381 215.401 194.944C214.925 195.508 214.245 195.859 213.51 195.921H213.52Z" fill="#1E7CF7"/>
<path d="M206.983 205.108C205.496 205.493 200.489 203.919 200.489 203.919C200.489 203.919 204.1 200.108 205.586 199.724C205.942 199.624 206.314 199.596 206.681 199.642C207.048 199.687 207.403 199.806 207.723 199.99C208.044 200.174 208.325 200.42 208.549 200.714C208.773 201.009 208.937 201.344 209.029 201.702C209.122 202.06 209.143 202.433 209.09 202.799C209.037 203.165 208.911 203.517 208.721 203.834C208.53 204.151 208.278 204.426 207.98 204.645C207.681 204.863 207.342 205.02 206.983 205.106V205.108Z" fill="#1E7CF7"/>
<path d="M207.116 181.777C207.736 183.182 212.082 186.134 212.082 186.134C212.082 186.134 212.823 180.937 212.2 179.532C211.893 178.872 211.339 178.359 210.657 178.103C209.975 177.848 209.221 177.869 208.555 178.164C207.889 178.459 207.365 179.003 207.096 179.679C206.827 180.356 206.834 181.111 207.116 181.783V181.777Z" fill="#1E7CF7"/>
<path d="M199.607 192.62C200.62 193.773 205.648 195.285 205.648 195.285C205.648 195.285 204.799 190.104 203.784 188.95C203.546 188.669 203.253 188.438 202.924 188.271C202.595 188.103 202.236 188.003 201.868 187.976C201.499 187.949 201.13 187.996 200.78 188.114C200.43 188.231 200.107 188.417 199.829 188.661C199.552 188.904 199.326 189.201 199.164 189.533C199.003 189.865 198.909 190.225 198.888 190.594C198.868 190.962 198.921 191.331 199.044 191.679C199.167 192.027 199.359 192.347 199.607 192.62Z" fill="#1E7CF7"/>
<path d="M193.754 204.157C194.559 205.467 199.259 207.804 199.259 207.804C199.259 207.804 199.297 202.556 198.49 201.246C198.299 200.935 198.048 200.665 197.753 200.45C197.457 200.236 197.122 200.082 196.767 199.997C196.412 199.912 196.043 199.898 195.683 199.956C195.322 200.013 194.976 200.141 194.665 200.333C194.354 200.524 194.084 200.774 193.869 201.07C193.655 201.366 193.501 201.701 193.416 202.056C193.331 202.411 193.317 202.779 193.375 203.14C193.432 203.501 193.56 203.846 193.752 204.157H193.754Z" fill="#1E7CF7"/>
<path opacity="0.1" d="M117.888 256.723C134.714 256.723 148.353 254.437 148.353 251.616C148.353 248.795 134.714 246.508 117.888 246.508C101.063 246.508 87.4229 248.795 87.4229 251.616C87.4229 254.437 101.063 256.723 117.888 256.723Z" fill="#1E7CF7"/>
<path opacity="0.1" d="M177.853 217.517C194.678 217.517 208.318 215.23 208.318 212.409C208.318 209.588 194.678 207.302 177.853 207.302C161.027 207.302 147.387 209.588 147.387 212.409C147.387 215.23 161.027 217.517 177.853 217.517Z" fill="#1E7CF7"/>
<path d="M179.875 145.003L179.846 146L178.114 207.125H175.203L176.63 146L176.658 144.849L179.875 145.003Z" fill="#B77B7F"/>
<path d="M196.729 196.785L194.549 196.779L162.146 196.71L160.419 196.708L161.339 193.873H196.499L196.729 196.785Z" fill="#DDA2A6"/>
<path opacity="0.1" d="M179.875 145.003L179.846 146H176.63L176.658 144.849L179.875 145.003Z" fill="black"/>
<path d="M181.102 143.509H175.703V145.541H181.102V143.509Z" fill="#B77B7F"/>
<path opacity="0.1" d="M162.433 193.873L162.146 196.71L160.419 196.708L161.339 193.873H162.433Z" fill="black"/>
<path d="M167.084 143.47L166.994 144.352L159.806 215.246L156.513 215.09L164.088 144.352L164.173 143.547L167.084 143.47Z" fill="#DDA2A6"/>
<path opacity="0.1" d="M196.729 196.785L194.549 196.779L194.254 193.873H196.499L196.729 196.785Z" fill="black"/>
<path d="M200.176 215.09L196.881 215.246L189.695 144.352L189.605 143.47L192.514 143.547L192.598 144.352L200.176 215.09Z" fill="#DDA2A6"/>
<path d="M214.192 73.5729H141.575V143.201H214.192V73.5729Z" fill="white"/>
<path d="M179.301 50.2857V67.0996H176.469V50.2857C176.461 50.0947 176.491 49.9041 176.559 49.7252C176.626 49.5463 176.729 49.383 176.861 49.2449C176.994 49.1069 177.153 48.9971 177.328 48.922C177.504 48.847 177.693 48.8083 177.885 48.8083C178.076 48.8083 178.265 48.847 178.441 48.922C178.617 48.9971 178.776 49.1069 178.908 49.2449C179.04 49.383 179.143 49.5463 179.211 49.7252C179.278 49.9041 179.309 50.0947 179.301 50.2857Z" fill="#DDA2A6"/>
<path opacity="0.1" d="M179.301 65.5696H176.466V67.0995H179.301V65.5696Z" fill="black"/>
<path d="M180.413 66.7177V72.2685H175.372V66.7177C175.372 66.6271 175.389 66.5373 175.424 66.4535C175.458 66.3697 175.509 66.2936 175.573 66.2295C175.637 66.1654 175.713 66.1146 175.797 66.0801C175.881 66.0456 175.971 66.028 176.061 66.0283H179.729C179.91 66.0297 180.084 66.1029 180.213 66.2321C180.341 66.3612 180.413 66.5358 180.413 66.7177Z" fill="#DDA2A6"/>
<path opacity="0.1" d="M177.883 70.6232C178.475 70.6232 178.955 70.1436 178.955 69.552C178.955 68.9604 178.475 68.4808 177.883 68.4808C177.292 68.4808 176.812 68.9604 176.812 69.552C176.812 70.1436 177.292 70.6232 177.883 70.6232Z" fill="black"/>
<path d="M177.883 70.3926C178.475 70.3926 178.955 69.913 178.955 69.3214C178.955 68.7298 178.475 68.2502 177.883 68.2502C177.292 68.2502 176.812 68.7298 176.812 69.3214C176.812 69.913 177.292 70.3926 177.883 70.3926Z" fill="#B77B7F"/>
<path opacity="0.1" d="M180.413 71.5817H175.357V72.2711H180.413V71.5817Z" fill="black"/>
<path opacity="0.1" d="M182.481 72.5017H173.288V74.0342H182.481V72.5017Z" fill="black"/>
<path d="M182.481 72.0404H173.288V73.5729H182.481V72.0404Z" fill="#DDA2A6"/>
<path opacity="0.1" d="M159.288 141.407H197.895C198.337 141.407 198.761 141.583 199.073 141.895C199.386 142.208 199.561 142.631 199.561 143.073V143.437H157.623V143.073C157.623 142.631 157.798 142.208 158.111 141.895C158.423 141.583 158.847 141.407 159.288 141.407Z" fill="black"/>
<path opacity="0.1" d="M164.173 143.547L167.084 143.47L166.994 144.352H164.088L164.173 143.547Z" fill="black"/>
<path opacity="0.1" d="M181.102 143.509H175.703V144.352H181.102V143.509Z" fill="black"/>
<path opacity="0.1" d="M192.598 144.352H189.695L189.605 143.47L192.514 143.547L192.598 144.352Z" fill="black"/>
<path d="M159.288 141.861H197.895C198.337 141.861 198.761 142.036 199.073 142.349C199.386 142.661 199.561 143.085 199.561 143.527V143.891H157.623V143.527C157.623 143.085 157.798 142.661 158.111 142.349C158.423 142.036 158.847 141.861 159.288 141.861Z" fill="#DDA2A6"/>
<path d="M150.824 109.535C150.242 109.228 143.905 104.441 143.905 104.441L133.677 97.9543C133.677 97.9543 133.623 97.8006 133.526 97.5366C136.332 94.3512 135.719 89.7281 132.865 86.4786C129.405 82.5372 113.773 74.0521 109.062 81.3097C108.404 82.3347 108.381 83.4982 108.209 84.6258C107.807 87.2577 106.51 89.8076 104.475 91.9551C102.907 93.6131 100.849 95.1405 99.9468 97.0164C99.9468 96.9933 99.9289 96.9703 99.9212 96.9446C99.7034 97.3467 99.5454 97.7784 99.4522 98.226C99.0037 100.514 100.541 102.708 101.359 104.935C101.633 105.689 101.832 106.469 101.953 107.262C101.974 107.103 101.992 106.947 102.01 106.788C102.209 107.918 102.277 109.066 102.212 110.212C96.5359 111.367 96.5333 121.078 96.5333 121.078C96.5333 121.078 95.8337 124.937 95.9516 126.328C96.0695 127.72 96.0669 130.729 96.0669 131.454C96.0669 132.179 95.3673 136.702 95.2981 137.246C95.2988 137.253 95.2988 137.261 95.2981 137.269C95.1956 137.863 94.1321 140.728 96.7024 141.369C96.8818 141.415 97.0715 141.453 97.2688 141.489C97.379 143.809 97.5789 148.665 97.4021 149.746C97.4021 149.746 98.3374 156.271 99.1139 157.929C99.6049 158.901 100.179 159.829 100.831 160.702C100.775 161.099 100.64 161.481 100.436 161.827C100.039 162.398 100.244 162.867 100.908 163.07C100.885 163.267 100.859 163.49 100.831 163.741C100.546 166.258 100.121 171.26 100.844 173.795C101.836 177.27 101.894 178.428 101.894 178.428C101.894 178.428 101.894 179.468 102.304 180.048C102.715 180.627 103.471 186.014 103.471 186.882C103.471 187.751 105.454 195.567 104.87 197.42C104.285 199.273 104.754 201.879 104.754 201.879C104.754 201.879 104.403 206.454 103.986 207.438C103.568 208.422 103.401 224.287 104.042 228.398C104.683 232.508 105.093 235.925 105.093 235.925C105.093 235.925 104.685 239.689 105.034 240.209C105.382 240.73 106.026 243.859 105.559 244.03C105.093 244.202 104.859 245.478 104.859 245.478C105.106 245.853 105.372 246.215 105.656 246.562C105.477 246.499 105.301 246.425 105.131 246.339C105.316 246.596 105.592 246.959 105.933 247.364L105.613 251.529C105.599 251.691 105.643 251.853 105.737 251.987C105.831 252.12 105.968 252.217 106.125 252.259C107.149 252.537 108.228 252.533 109.249 252.246C110.27 251.959 111.194 251.4 111.922 250.629C114.839 247.677 115.83 248.082 116.356 246.288C116.412 246.096 116.461 245.906 116.502 245.727C116.879 244.128 115.174 242.939 113.819 243.62C114.006 242.354 114.152 240.917 114.011 240.104C113.719 238.426 113.778 234.026 113.778 234.026L113.37 212.947C113.37 212.947 114.126 208.778 115.003 207.158C115.879 205.539 115.771 199.862 115.771 199.862L116.763 181.216L117.696 172.126C117.696 172.126 118.629 169 119.795 172.475C119.795 172.475 119.154 179.479 119.446 181.16C119.738 182.841 120.146 191.003 119.854 192.797C119.562 194.591 118.28 204.437 119.085 206.925C119.89 209.413 120.787 212.43 120.607 213.416C120.428 214.403 119.838 235.766 119.838 235.766C119.838 235.766 121.414 239.866 120.248 241.209C119.082 242.552 120.19 247.872 120.19 247.872C120.19 247.872 120.33 247.972 120.571 248.11L120.538 248.553L120.172 253.343C120.158 253.506 120.203 253.668 120.296 253.802C120.39 253.936 120.527 254.032 120.684 254.076C121.707 254.354 122.787 254.35 123.808 254.063C124.829 253.776 125.753 253.217 126.481 252.446C129.397 249.491 130.389 249.899 130.914 248.102C130.971 247.91 131.019 247.723 131.063 247.541C131.473 245.796 129.397 244.53 128.008 245.67L127.939 245.729C127.867 245.791 127.79 245.848 127.711 245.901C127.674 245.928 127.636 245.953 127.596 245.975C127.888 244.653 128.313 242.388 128.108 241.327C127.816 239.763 128.398 235.017 128.398 235.017C128.398 235.017 130.089 229.341 130.148 227.073L130.615 209.009C130.615 209.009 130.558 201.654 130.791 199.86C131.025 198.066 132.89 182.546 134.756 177.913C136.188 174.366 136.829 165.315 136.45 160.725C136.429 160.499 136.409 160.282 136.383 160.079C138.672 158.39 138.9 155.582 138.9 155.582C138.9 155.582 136.798 151.568 134.776 149.869C132.754 148.17 132.319 145.249 132.39 144.006C132.425 143.249 132.175 142.506 131.691 141.922C131.691 141.922 130.758 138.911 130.135 138.604C130.084 138.578 130.038 138.543 129.999 138.501C129.577 138.048 129.902 136.751 129.902 136.751V136.71C129.976 136.41 130.415 134.468 130.284 133.97C130.128 133.432 130.361 130.882 130.361 130.882C130.361 130.882 131.839 126.482 131.606 123.007C131.373 119.532 134.641 119.842 134.641 119.842L144.73 119.737H145.878C146.283 119.393 146.653 119.011 146.982 118.594C148.904 118.366 152.792 117.641 153.228 115.519C153.82 112.703 151.408 109.845 150.824 109.535ZM104.08 141.661L104.15 139.895C104.388 140.1 104.547 140.231 104.547 140.231C104.675 140.693 104.682 141.181 104.565 141.646C104.502 141.864 104.391 142.066 104.24 142.235C104.088 142.405 103.901 142.538 103.691 142.625C103.642 142.646 103.595 142.671 103.55 142.699L103.453 141.702L104.08 141.661ZM140.676 110.652C140.248 110.46 138.807 110.499 138.067 110.499C137.326 110.499 136.124 109.881 136.124 109.881C135.868 109.381 134.451 109.084 133.19 108.915C132.232 106.552 130.884 104.248 130.702 101.786C130.702 101.696 130.702 101.606 130.689 101.516L130.835 101.773C130.835 101.773 136.709 105.519 137.37 106.642C137.882 107.498 140.35 109.41 141.493 110.266C141.336 110.471 141.115 110.619 140.865 110.686C140.8 110.693 140.734 110.681 140.676 110.652Z" fill="url(#paint0_linear)"/>
<path d="M130.976 247.557C130.932 247.736 130.886 247.923 130.83 248.113C130.317 249.907 129.336 249.491 126.473 252.421C125.76 253.185 124.851 253.74 123.845 254.026C122.839 254.311 121.775 254.316 120.766 254.04C120.609 253.999 120.471 253.903 120.377 253.77C120.284 253.636 120.24 253.475 120.254 253.312L120.615 248.561L120.787 246.275C120.787 246.275 125.358 247.557 127.685 245.929C127.763 245.876 127.839 245.819 127.911 245.758C127.929 245.741 127.946 245.724 127.962 245.706C128.262 245.458 128.633 245.309 129.022 245.282C129.411 245.254 129.799 245.349 130.131 245.553C130.463 245.757 130.723 246.06 130.875 246.419C131.026 246.779 131.062 247.176 130.976 247.557Z" fill="#67647E"/>
<path d="M116.625 245.763C116.581 245.942 116.535 246.129 116.479 246.319C115.966 248.113 114.985 247.697 112.122 250.627C111.409 251.391 110.5 251.946 109.494 252.232C108.488 252.517 107.424 252.522 106.415 252.246C106.258 252.205 106.12 252.109 106.026 251.976C105.932 251.843 105.889 251.681 105.903 251.518L106.264 246.767L106.436 244.481C106.436 244.481 111.007 245.763 113.334 244.135C113.412 244.082 113.488 244.025 113.56 243.964C113.578 243.947 113.595 243.93 113.611 243.912C113.911 243.664 114.282 243.515 114.671 243.488C115.06 243.46 115.448 243.555 115.78 243.759C116.112 243.963 116.372 244.266 116.524 244.625C116.675 244.985 116.711 245.382 116.625 245.763Z" fill="#67647E"/>
<path opacity="0.1" d="M111.902 246.475L112.086 248.946C109.462 251.567 106.338 247.664 105.423 246.383C107.83 247.623 111.902 246.475 111.902 246.475Z" fill="black"/>
<path opacity="0.1" d="M127.327 247.48L127.67 247.252C125.274 250.896 121.714 249.215 120.605 248.561L120.776 246.275C120.776 246.275 125.348 247.557 127.675 245.929C127.493 246.821 127.327 247.48 127.327 247.48Z" fill="black"/>
<path d="M134.625 178.484C132.785 183.079 130.948 198.473 130.717 200.267C130.486 202.061 130.545 209.344 130.545 209.344L130.084 227.255C130.025 229.497 128.359 235.127 128.359 235.127C128.359 235.127 127.785 239.838 128.072 241.388C128.359 242.939 127.327 247.026 127.327 247.026L127.67 246.795C124.797 251.152 120.259 247.887 120.259 247.887C120.259 247.887 119.167 242.603 120.318 241.28C121.468 239.958 119.915 235.881 119.915 235.881C119.915 235.881 120.489 214.682 120.661 213.706C120.833 212.73 119.972 209.741 119.167 207.271C118.362 204.801 119.628 195.034 119.915 193.253C120.202 191.472 119.8 183.371 119.513 181.706C119.226 180.04 119.856 173.087 119.856 173.087C118.708 169.64 117.788 172.744 117.788 172.744L116.868 181.762L115.892 200.262C115.892 200.262 116.007 205.9 115.146 207.502C114.285 209.103 113.537 213.245 113.537 213.245L113.939 234.159C113.939 234.159 113.883 238.515 114.17 240.189C114.457 241.862 113.537 246.165 113.537 246.165C110.321 253.743 105.154 245.527 105.154 245.527C105.154 245.527 105.385 244.263 105.844 244.092C106.302 243.92 105.672 240.817 105.331 240.299C104.99 239.781 105.387 236.047 105.387 236.047C105.387 236.047 104.985 232.66 104.362 228.58C103.74 224.5 103.904 208.76 104.306 207.784C104.708 206.807 105.052 202.269 105.052 202.269C105.052 202.269 104.593 199.683 105.167 197.843C105.741 196.003 103.788 188.251 103.788 187.387C103.788 186.523 103.043 181.183 102.64 180.609C102.238 180.035 102.238 178.999 102.238 178.999C102.238 178.999 102.181 177.851 101.213 174.405C100.5 171.888 100.921 166.927 101.2 164.428C101.3 163.503 101.387 162.913 101.387 162.913C101.387 162.913 134.336 157.57 135.65 158.777C135.958 159.062 136.163 160.038 136.283 161.43C136.675 165.981 136.029 174.976 134.625 178.484Z" fill="#444053"/>
<path opacity="0.1" d="M122.155 204.316C122.309 204.316 125.948 204.624 127.28 204.355C128.613 204.086 122.155 204.316 122.155 204.316Z" fill="black"/>
<path opacity="0.1" d="M122.424 206.461C122.424 206.461 127.45 207.343 127.706 206.884C127.962 206.425 122.424 206.461 122.424 206.461Z" fill="black"/>
<path opacity="0.1" d="M107.066 205.541C107.066 205.541 109.67 205.657 111.087 206.31C112.504 206.964 107.066 205.541 107.066 205.541Z" fill="black"/>
<path d="M97.6045 141.123C97.6045 141.123 98.0248 149.126 97.7967 150.543C97.7967 150.543 98.7141 157.017 99.4804 158.662C100.247 160.307 101.894 162.378 101.894 162.378L104.155 146.489L103.617 141.046L97.6045 141.123Z" fill="#EFB7B9"/>
<path d="M121.35 104.661C126.236 104.661 130.197 100.7 130.197 95.8145C130.197 90.9287 126.236 86.9681 121.35 86.9681C116.465 86.9681 112.504 90.9287 112.504 95.8145C112.504 100.7 116.465 104.661 121.35 104.661Z" fill="#EFB7B9"/>
<path d="M116.755 99.9481C116.755 99.9481 113.998 105.35 111.241 107.877C108.483 110.404 127.785 113.277 128.244 113.277C128.703 113.277 124.797 101.788 125.487 100.402C126.176 99.0153 116.755 99.9481 116.755 99.9481Z" fill="#EFB7B9"/>
<path opacity="0.1" d="M136.288 161.43C135.855 161.76 135.377 162.028 134.869 162.224C131.347 163.603 127.516 165.517 124.913 164.753C122.309 163.99 116.794 164.753 116.794 164.753C116.794 164.753 105.685 163.833 103.468 164.369C102.458 164.612 101.674 164.602 101.162 164.428C101.261 163.503 101.349 162.913 101.349 162.913C101.349 162.913 134.336 157.57 135.65 158.777C135.963 159.062 136.163 160.038 136.288 161.43Z" fill="black"/>
<path d="M138.7 156.325C138.7 156.325 138.395 160.156 134.869 161.535C131.342 162.913 127.516 164.828 124.913 164.064C122.309 163.3 116.794 164.064 116.794 164.064C116.794 164.064 105.685 163.144 103.468 163.68C101.251 164.215 100.095 163.528 100.785 162.532C101.474 161.535 101.4 158.242 101.4 156.863C101.4 155.484 100.631 149.892 101.32 148.896C102.01 147.899 102.622 144.07 104.001 143.455C104.208 143.368 104.393 143.235 104.542 143.067C104.691 142.899 104.8 142.7 104.862 142.484C104.976 142.023 104.97 141.54 104.844 141.082C104.844 141.082 104.611 140.89 104.291 140.605C103.478 139.88 102.105 138.535 102.545 138.094C103.158 137.479 102.545 133.496 102.545 133.496C102.545 133.496 101.09 130.434 101.628 129.286C102.166 128.138 96.9536 122.085 96.9536 122.085C96.9536 122.085 96.9536 111.67 103.235 111.209C103.235 111.209 107.678 111.362 108.214 109.371C108.75 107.38 112.273 106.229 112.273 106.229L120.318 107.992C120.318 107.992 127.439 109.53 128.744 108.605C130.048 107.68 131.05 109.83 131.05 109.83C131.05 109.83 135.491 110.06 135.95 110.98C136.409 111.901 134.497 120.86 134.497 120.86C134.497 120.86 131.278 120.555 131.509 124.002C131.74 127.448 130.269 131.815 130.269 131.815C130.269 131.815 130.038 134.342 130.192 134.878C130.335 135.372 129.889 137.299 129.818 137.597V137.635C129.818 137.635 129.497 138.916 129.912 139.373C129.951 139.414 129.996 139.448 130.046 139.475C130.661 139.78 131.583 142.768 131.583 142.768C132.061 143.348 132.307 144.085 132.273 144.836C132.198 146.064 132.657 148.972 134.648 150.659C136.639 152.345 138.7 156.325 138.7 156.325Z" fill="#A36468"/>
<path d="M104.537 138.586V138.911L104.398 142.499C104.398 142.499 99.6854 142.881 97.1202 142.243C94.5549 141.605 95.6338 138.757 95.7363 138.168C95.7372 138.16 95.7372 138.153 95.7363 138.145C95.8106 137.607 96.5051 133.127 96.5051 132.399C96.5051 131.672 96.5051 128.684 96.3898 127.305C96.2745 125.926 96.9536 122.085 96.9536 122.085L97.4507 121.475L102.848 123.543L104.537 138.586Z" fill="#A36468"/>
<path opacity="0.1" d="M104.524 138.919L104.385 142.507C104.385 142.507 99.6726 142.889 97.1074 142.25C94.5421 141.612 95.621 138.765 95.7235 138.176L104.524 138.919Z" fill="black"/>
<path opacity="0.1" d="M104.862 142.486C104.976 142.025 104.97 141.542 104.844 141.084C104.844 141.084 104.611 140.892 104.291 140.608C108.347 140.041 124.413 137.837 129.823 137.597V137.635C129.823 137.635 129.502 138.916 129.917 139.373L104.862 142.486Z" fill="black"/>
<path opacity="0.1" d="M130.427 145.249C130.427 145.249 131.424 150.887 127.708 152.87C127.706 152.88 129.815 150.085 130.427 145.249Z" fill="black"/>
<path opacity="0.1" d="M106.108 153.032C106.108 153.032 115.077 151.494 116.832 152.688C118.588 153.882 106.108 153.032 106.108 153.032Z" fill="black"/>
<path opacity="0.1" d="M127.327 118.141C127.327 118.141 125.948 123.809 126.981 125.111C128.013 126.413 127.327 118.141 127.327 118.141Z" fill="black"/>
<path opacity="0.1" d="M101.359 113.507C101.359 113.507 102.622 115.614 101.856 117.797C101.09 119.981 101.359 113.507 101.359 113.507Z" fill="black"/>
<path opacity="0.1" d="M98.7475 131.969C98.7475 131.969 100.357 132.925 99.8212 134.419C99.2856 135.913 98.7475 131.969 98.7475 131.969Z" fill="black"/>
<path opacity="0.1" d="M98.6014 127.602C98.6014 127.602 100.093 128.407 100.285 129.593C100.477 130.78 98.6014 127.602 98.6014 127.602Z" fill="black"/>
<path opacity="0.1" d="M120.738 173.408C120.738 173.408 130.122 174.366 131.998 172.144C131.998 172.157 123.534 173.83 120.738 173.408Z" fill="black"/>
<path opacity="0.1" d="M104.537 172.872C104.537 172.872 114.611 175.248 116.602 173.369C116.602 173.369 107.945 174.02 104.537 172.872Z" fill="black"/>
<path opacity="0.1" d="M121.466 176.514C121.466 176.514 125.679 176.514 127.632 176.629C129.584 176.744 121.466 176.514 121.466 176.514Z" fill="black"/>
<path opacity="0.1" d="M105.226 178.308C105.226 178.308 107.294 180.645 109.631 180.224C111.968 179.804 105.226 178.308 105.226 178.308Z" fill="black"/>
<path d="M109.288 82.6294C108.639 83.6366 108.616 84.8026 108.447 85.9199C108.053 88.5313 106.774 91.0607 104.772 93.1929C102.935 95.1456 100.416 96.9164 99.9391 99.3023C99.4881 101.568 101.018 103.749 101.82 105.965C103.934 111.78 100.982 117.879 100.121 123.881C99.8827 125.539 100.17 127.658 102.212 128.209C102.85 128.384 103.581 128.361 104.155 128.637C104.924 129.006 105.159 129.773 105.3 130.462C105.814 132.928 105.992 135.452 105.828 137.966C105.736 139.375 105.633 140.997 106.966 141.966C107.571 142.409 108.386 142.635 109.172 142.848C111.271 143.414 113.985 143.873 115.4 142.543C115.994 141.986 116.217 141.202 116.958 140.762C118.068 140.103 119.641 140.549 121.038 140.618C123.905 140.762 126.54 139.08 127.67 137.053C128.8 135.026 128.695 132.697 128.285 130.511C127.875 128.325 127.142 126.154 127.091 123.935C127.073 123.166 127.142 122.384 127.583 121.703C128.436 120.383 130.422 119.783 131.781 118.745C134.325 116.798 134.318 113.607 133.392 110.937C132.467 108.267 130.807 105.706 130.602 102.946C130.51 102.279 130.643 101.601 130.978 101.017C131.342 100.456 131.978 100.035 132.516 99.5714C136.229 96.4347 135.791 91.2837 132.721 87.7574C129.323 83.8493 113.926 75.4308 109.288 82.6294Z" fill="#E3787D"/>
<g opacity="0.1">
<path opacity="0.1" d="M102.292 108.379C102.581 106.05 102.527 103.741 101.705 101.473C101.3 100.361 100.713 99.2562 100.285 98.1414C100.071 98.5445 99.916 98.9759 99.8238 99.4228C99.3728 101.688 100.903 103.869 101.705 106.086C101.975 106.829 102.171 107.598 102.292 108.379Z" fill="black"/>
<path opacity="0.1" d="M105.713 133.473C105.876 130.96 105.699 128.436 105.188 125.97C105.044 125.28 104.808 124.517 104.039 124.148C103.465 123.871 102.735 123.891 102.097 123.72C101.705 123.626 101.339 123.443 101.029 123.187C100.718 122.93 100.469 122.606 100.303 122.238C100.185 122.823 100.083 123.404 99.9981 123.989C99.7597 125.647 100.047 127.766 102.089 128.317C102.727 128.489 103.458 128.466 104.032 128.742C104.801 129.112 105.036 129.878 105.18 130.567C105.415 131.711 105.579 132.868 105.672 134.032C105.69 133.842 105.7 133.658 105.713 133.473Z" fill="black"/>
<path opacity="0.1" d="M127.557 132.563C126.425 134.598 123.79 136.272 120.922 136.128C119.526 136.056 117.952 135.616 116.845 136.272C116.105 136.71 115.879 137.497 115.285 138.053C113.87 139.373 111.156 138.924 109.057 138.358C108.27 138.142 107.458 137.92 106.851 137.476C106.272 137.05 105.881 136.416 105.762 135.708C105.777 136.495 105.762 137.284 105.713 138.071C105.621 139.48 105.518 141.102 106.851 142.074C107.458 142.514 108.27 142.74 109.057 142.953C111.156 143.519 113.87 143.978 115.285 142.648C115.879 142.092 116.105 141.307 116.845 140.854C117.952 140.195 119.526 140.641 120.922 140.71C123.79 140.854 126.425 139.173 127.557 137.146C128.644 135.188 128.595 132.974 128.216 130.859C128.073 131.454 127.851 132.027 127.557 132.563Z" fill="black"/>
<path opacity="0.1" d="M132.411 95.0918C131.863 95.5531 131.227 95.9759 130.873 96.5372C130.538 97.121 130.405 97.7997 130.497 98.4669C130.571 99.3055 130.748 100.132 131.025 100.927C131.451 100.472 131.919 100.057 132.421 99.6867C134.933 97.5674 135.543 94.5255 134.728 91.686C134.298 93.0198 133.494 94.2019 132.411 95.0918Z" fill="black"/>
<path opacity="0.1" d="M131.665 114.253C130.31 115.291 128.321 115.893 127.47 117.213C127.027 117.895 126.958 118.681 126.976 119.442C127.007 120.339 127.117 121.231 127.304 122.108C127.352 122.004 127.408 121.904 127.47 121.808C128.321 120.488 130.31 119.888 131.665 118.851C133.99 117.072 134.184 114.258 133.498 111.749C133.149 112.747 132.511 113.619 131.665 114.253Z" fill="black"/>
</g>
<path d="M145.593 119.712C145.593 119.712 152.221 119.368 152.795 116.572C153.369 113.776 151.001 110.934 150.422 110.635C149.842 110.335 143.595 105.578 143.595 105.578L133.523 99.146C133.523 99.146 128.698 85.3075 127.629 90.6045C126.56 95.9016 130.732 102.936 130.732 102.936C130.732 102.936 136.514 106.652 137.165 107.762C137.816 108.871 141.801 111.783 141.801 111.783L145.593 119.712Z" fill="#EFB7B9"/>
<path d="M149.156 115.191C147.587 119.176 145.555 120.747 145.555 120.747H144.425L134.489 120.849L133.344 117.72L134.953 110.939L135.947 110.98C135.947 110.98 137.137 111.593 137.862 111.593C138.587 111.593 140.009 111.555 140.425 111.744C140.483 111.773 140.548 111.782 140.612 111.772C140.988 111.734 141.38 111.17 141.38 111.17C141.38 111.17 150.727 111.209 149.156 115.191Z" fill="#A36468"/>
<path opacity="0.1" d="M149.156 115.191C147.587 119.176 145.555 120.747 145.555 120.747H144.425C145.014 119.168 146.257 115.929 146.731 115.181C147.195 114.473 143.033 112.713 140.599 111.762C140.975 111.724 141.368 111.16 141.368 111.16C141.368 111.16 150.727 111.209 149.156 115.191Z" fill="black"/>
<path opacity="0.1" d="M45.2744 240.783C51.5273 240.783 56.5963 239.792 56.5963 238.569C56.5963 237.346 51.5273 236.355 45.2744 236.355C39.0214 236.355 33.9524 237.346 33.9524 238.569C33.9524 239.792 39.0214 240.783 45.2744 240.783Z" fill="#1E7CF7"/>
<path opacity="0.1" d="M234.006 225.576C238.561 225.576 242.253 224.855 242.253 223.964C242.253 223.074 238.561 222.352 234.006 222.352C229.452 222.352 225.76 223.074 225.76 223.964C225.76 224.855 229.452 225.576 234.006 225.576Z" fill="#1E7CF7"/>
<path opacity="0.1" d="M269.753 232.109C274.308 232.109 278 231.387 278 230.497C278 229.606 274.308 228.885 269.753 228.885C265.199 228.885 261.507 229.606 261.507 230.497C261.507 231.387 265.199 232.109 269.753 232.109Z" fill="#1E7CF7"/>
<path opacity="0.1" d="M214.402 245.563C218.956 245.563 222.648 244.841 222.648 243.951C222.648 243.061 218.956 242.339 214.402 242.339C209.847 242.339 206.155 243.061 206.155 243.951C206.155 244.841 209.847 245.563 214.402 245.563Z" fill="#1E7CF7"/>
<path d="M55.9736 177.106C55.9736 177.106 57.829 179.532 55.1177 183.192C52.4063 186.852 50.1742 189.942 51.0814 192.225C51.0814 192.225 55.1689 185.427 58.4978 185.332C61.8268 185.237 59.6357 181.196 55.9736 177.106Z" fill="#1E7CF7"/>
<path opacity="0.1" d="M55.9736 177.106C56.1359 177.343 56.2636 177.601 56.3529 177.874C59.5998 181.69 61.3296 185.25 58.2083 185.34C55.3022 185.422 51.8143 190.621 50.9789 191.933C51.0056 192.035 51.039 192.136 51.0788 192.233C51.0788 192.233 55.1663 185.434 58.4953 185.34C61.8242 185.245 59.6357 181.196 55.9736 177.106Z" fill="black"/>
<path d="M59.4204 180.196C59.4204 181.05 59.3256 181.734 59.2077 181.734C59.0898 181.734 58.9924 181.042 58.9924 180.196C58.9924 179.351 59.1129 179.745 59.2308 179.745C59.3487 179.745 59.4204 179.333 59.4204 180.196Z" fill="#FFD037"/>
<path d="M60.6044 181.216C59.8561 181.624 59.2026 181.872 59.1462 181.767C59.0898 181.662 59.6587 181.255 60.3994 180.839C61.14 180.424 60.853 180.729 60.9119 180.839C60.9708 180.95 61.3527 180.806 60.6044 181.216Z" fill="#FFD037"/>
<path d="M46.1815 177.106C46.1815 177.106 44.3262 179.532 47.0375 183.192C49.7488 186.852 51.9809 189.942 51.0814 192.225C51.0814 192.225 46.9811 185.427 43.6496 185.332C40.3181 185.237 42.5195 181.196 46.1815 177.106Z" fill="#1E7CF7"/>
<path opacity="0.1" d="M46.1816 177.106C46.0192 177.343 45.8915 177.601 45.8023 177.874C42.5553 181.69 40.8255 185.25 43.9469 185.34C46.853 185.422 50.3536 190.621 51.1762 191.933C51.1492 192.035 51.1167 192.135 51.0789 192.233C51.0789 192.233 46.9786 185.434 43.6471 185.34C40.3156 185.245 42.5195 181.196 46.1816 177.106Z" fill="black"/>
<path d="M42.7347 180.196C42.7347 181.05 42.8295 181.734 42.9474 181.734C43.0653 181.734 43.1627 181.042 43.1627 180.196C43.1627 179.351 43.0423 179.745 42.9244 179.745C42.8065 179.745 42.7347 179.333 42.7347 180.196Z" fill="#FFD037"/>
<path d="M41.5508 181.216C42.3016 181.624 42.9526 181.872 43.0115 181.767C43.0704 181.662 42.499 181.255 41.7558 180.839C41.0126 180.424 41.3022 180.729 41.2432 180.839C41.1843 180.95 40.8025 180.806 41.5508 181.216Z" fill="#FFD037"/>
<path opacity="0.1" d="M51.0763 210.774C61.7833 210.774 70.463 209.442 70.463 207.799C70.463 206.156 61.7833 204.824 51.0763 204.824C40.3693 204.824 31.6895 206.156 31.6895 207.799C31.6895 209.442 40.3693 210.774 51.0763 210.774Z" fill="#1E7CF7"/>
<path d="M61.0554 188.958L60.9632 189.727L60.8325 190.795L60.7786 191.241L60.6479 192.313L60.5916 192.759L60.4609 193.827L58.9796 205.985C58.8464 207.071 57.073 207.917 54.9306 207.917H47.2374C45.095 207.917 43.3242 207.071 43.1909 205.985L41.7071 193.825L41.5764 192.756L41.5226 192.31L41.3893 191.239L41.3355 190.793L41.2048 189.724L41.1126 188.955C41.0382 188.34 41.9967 187.823 43.2088 187.823H58.9745C60.1713 187.825 61.1323 188.343 61.0554 188.958Z" fill="#65617D"/>
<path d="M60.9606 189.714L60.8324 190.785H41.3201L41.192 189.714H60.9606Z" fill="#9D9CB5"/>
<path d="M60.7761 191.231L60.6479 192.3H41.5072L41.3765 191.231H60.7761Z" fill="#9D9CB5"/>
<path d="M60.5916 192.746L60.4609 193.814H41.6917L41.561 192.746H60.5916Z" fill="#9D9CB5"/>
<path opacity="0.1" d="M68.1259 82.9831C72.5842 82.9831 76.1983 79.3689 76.1983 74.9106C76.1983 70.4523 72.5842 66.8382 68.1259 66.8382C63.6676 66.8382 60.0534 70.4523 60.0534 74.9106C60.0534 79.3689 63.6676 82.9831 68.1259 82.9831Z" fill="#1E7CF7"/>
<path opacity="0.1" d="M51.2121 60.6877C53.972 60.6877 56.2094 58.4504 56.2094 55.6905C56.2094 52.9306 53.972 50.6932 51.2121 50.6932C48.4522 50.6932 46.2149 52.9306 46.2149 55.6905C46.2149 58.4504 48.4522 60.6877 51.2121 60.6877Z" fill="#1E7CF7"/>
<path opacity="0.1" d="M25.0752 69.9134C26.7736 69.9134 28.1505 68.5366 28.1505 66.8382C28.1505 65.1398 26.7736 63.7629 25.0752 63.7629C23.3768 63.7629 22 65.1398 22 66.8382C22 68.5366 23.3768 69.9134 25.0752 69.9134Z" fill="#1E7CF7"/>
</g>
<defs>
<linearGradient id="paint0_linear" x1="124.154" y1="254.271" x2="124.154" y2="78.4702" gradientUnits="userSpaceOnUse">
<stop stop-color="#808080" stop-opacity="0.25"/>
<stop offset="0.54" stop-color="#808080" stop-opacity="0.12"/>
<stop offset="1" stop-color="#808080" stop-opacity="0.1"/>
</linearGradient>
<clipPath id="clip0">
<rect x="22" y="43" width="256" height="213.726" fill="white"/>
</clipPath>
</defs>
</svg>
