<?xml version="1.0" encoding="UTF-8"?>
<svg width="669px" height="418px" viewBox="0 0 669 418" version="1.1" xmlns="http://www.w3.org/2000/svg" xmlns:xlink="http://www.w3.org/1999/xlink">
    <!-- Generator: Sketch 58 (84663) - https://sketch.com -->
    <title>circles_y7s2</title>
    <desc>Created with Sketch.</desc>
    <defs>
        <linearGradient x1="49.9982699%" y1="100.00958%" x2="49.9982699%" y2="0.0235990399%" id="linearGradient-1">
            <stop stop-color="#808080" stop-opacity="0.25" offset="0%"></stop>
            <stop stop-color="#808080" stop-opacity="0.12" offset="54%"></stop>
            <stop stop-color="#808080" stop-opacity="0.1" offset="100%"></stop>
        </linearGradient>
        <linearGradient x1="100.026805%" y1="49.9953338%" x2="0.0534468996%" y2="49.9953338%" id="linearGradient-2">
            <stop stop-color="#808080" stop-opacity="0.25" offset="0%"></stop>
            <stop stop-color="#808080" stop-opacity="0.12" offset="54%"></stop>
            <stop stop-color="#808080" stop-opacity="0.1" offset="100%"></stop>
        </linearGradient>
    </defs>
    <g id="Page-1" stroke="none" stroke-width="1" fill="none" fill-rule="evenodd">
        <g id="Landing---Home-Page" transform="translate(-767.000000, -147.000000)" fill-rule="nonzero">
            <g id="circles_y7s2" transform="translate(768.000000, 147.000000)">
                <path d="M510,372.5 C551.820703,372.5 585.5,365.764141 585.5,357 C585.5,348.235859 551.820703,341.5 510,341.5 C468.179297,341.5 434.5,348.235859 434.5,357 C434.5,365.764141 468.179297,372.5 510,372.5 Z M510,371.5 L507.54794,371.49201 C467.652262,371.231733 435.5,364.648314 435.5,357 C435.5,349.195598 468.97799,342.5 510,342.5 C551.02201,342.5 584.5,349.195598 584.5,357 C584.5,364.804402 551.02201,371.5 510,371.5 Z" id="Oval" fill="#B1AFBA"></path>
                <path d="M226.297919,236.394115 C226.518162,236.954099 226.767564,237.502126 227.045096,238.035941 L227.045096,238.105137 C227.045096,238.105137 230.598897,251.258613 232.262779,254.020152 C232.746246,254.819048 233.292502,255.687139 233.832479,256.536359 C233.725772,257.160869 233.725772,257.799006 233.832479,258.423515 C234.334782,261.354898 234.943826,265.387121 234.667559,266.274084 C234.391292,267.161047 235.000335,269.36902 234.039679,270.136463 C233.079023,270.903907 232.093251,272.237497 235.038008,274.005133 C235.038008,274.005133 235.590542,275.495986 235.094517,275.829384 C235.038008,275.867127 235.094517,275.948904 235.232651,276.055842 C234.422686,278.458821 233.235993,282.346362 233.976891,282.623145 C234.385013,282.780408 235.490082,282.20168 236.70189,281.421656 C236.733284,281.578919 236.758399,281.748763 236.789793,281.918607 C236.982523,283.213625 237.280715,284.490669 237.681383,285.736952 C238.221359,286.938442 238.761336,288.963989 238.472511,289.630784 C238.183687,290.297579 239.26364,291.782142 239.012488,292.36716 C238.761336,292.952178 239.847568,294.851915 239.847568,294.851915 C239.847568,294.851915 240.927522,298.53816 240.88357,299.783683 C240.839619,301.029206 242.051427,309.0622 242.051427,309.0622 C242.051427,309.0622 240.795667,313.207652 241.423547,314.409141 C242.051427,315.610631 242.459549,319.756083 241.423547,321.29097 C240.387545,322.825857 239.087834,326.216447 239.508513,327.128572 C239.929193,328.040698 238.924585,339.313309 241.46122,343.955713 C241.786072,345.682889 242.02288,347.425525 242.170724,349.176844 C242.170724,350.434948 244.167382,353.775214 244.167382,353.775214 C244.167382,353.775214 242.961853,358.80763 245.919168,359.65685 C246.123182,359.720728 246.333866,359.760832 246.547047,359.77637 C246.637358,360.326606 246.563078,360.891313 246.333568,361.399324 C245.828174,362.100177 245.469379,362.896136 245.27873,363.739398 L245.27873,363.739398 C245.235276,363.898014 245.255561,364.067373 245.335239,364.211187 C245.668016,364.582327 246.590999,369.558128 246.590999,369.558128 C246.590999,369.558128 247.922105,375.1504 255.249464,373.785358 C255.249464,373.785358 260.203436,373.495994 259.789036,371.75352 C259.652847,371.178417 259.472313,370.614772 259.249059,370.06766 C259.074625,369.713605 258.919519,369.350316 258.784428,368.979401 C258.702803,368.564226 257.660523,367.40048 257.578898,366.614165 C257.497274,365.82785 256.831721,364.292963 256.951018,363.796012 C257.070315,363.299061 255.827113,359.738627 255.73921,358.946021 C255.637472,358.394545 255.47968,357.854944 255.2683,357.335648 L255.53201,357.209838 C255.53201,357.209838 256.197562,353.47956 255.619913,352.114517 C255.042263,350.749474 252.744223,348.969257 252.744223,348.969257 C252.744223,348.969257 253.076999,339.81026 252.662598,338.564737 C252.248197,337.319214 252.869799,332.601325 252.869799,332.601325 C252.869799,332.601325 254.282528,325.927083 254.200904,324.423649 C254.153694,323.492872 254.294647,322.562131 254.615305,321.687273 C254.615305,321.687273 255.494337,311.867771 256.071986,310.622249 C256.649636,309.376726 257.327746,297.198279 257.327746,297.198279 L257.717032,298.317992 C258.264203,299.998328 258.914245,301.643273 259.66346,303.243469 C259.983678,303.74671 260.919219,305.357083 261.722906,306.703255 L262.909599,308.716221 C262.909599,308.716221 263.449576,310.666282 263.072848,311.861481 C262.69612,313.05668 266.946867,319.523334 266.946867,319.523334 C266.673233,320.063189 266.531217,320.660336 266.532466,321.265808 C266.651763,321.89486 265.239033,323.876374 265.239033,323.876374 C265.239033,323.876374 264.699057,325.656591 265.031833,326.279352 C265.364609,326.902114 264.491856,330.588358 264.491856,330.588358 C264.491856,330.588358 263.072848,338.709419 262.740071,339.665578 C262.407295,340.621737 262.909599,347.163878 262.909599,347.163878 C262.909599,347.163878 260.297618,353.863281 261.509427,356.090125 C261.559657,356.914184 261.565936,358.172288 261.245717,358.68182 C260.81248,359.361196 260.938056,361.871113 260.982007,362.56307 C260.982007,362.68259 260.982007,362.745495 260.982007,362.745495 C260.982007,362.745495 259.562999,364.632651 261.352457,365.400095 C263.141914,366.167538 269.226071,366.721104 269.226071,366.721104 C269.226071,366.721104 275.008845,368.381801 277.796632,368.834719 C280.584419,369.287636 286.417424,369.124082 286.831825,367.425642 C286.979468,366.898213 287.030523,366.348351 286.982516,365.802688 C286.906413,365.101728 286.470869,364.491305 285.833496,364.192315 C284.119264,363.509307 282.36657,362.927486 280.584419,362.449841 C280.584419,362.449841 277.834305,361.820789 277.583153,360.62559 C277.332001,359.430391 273.420309,356.108997 273.420309,356.108997 C273.420309,356.108997 273.376358,355.876248 273.294733,355.561722 L273.420309,355.561722 L273.231945,355.373006 C273.037302,354.743954 272.723362,353.913606 272.340356,354.070869 L272.340356,354.070869 C272.219402,353.843384 272.196597,353.576229 272.27724,353.331472 C272.357883,353.086714 272.534954,352.885661 272.767314,352.775022 C274.267947,351.950963 275.184652,349.340398 274.763972,346.522245 C274.343293,343.704092 274.267947,344.201043 275.1407,342.58438 C275.682239,341.362574 275.898561,340.02104 275.76858,338.690548 L278.0729,330.085117 C278.433919,329.027886 278.657607,327.928496 278.738452,326.814046 C278.777462,325.937172 279.004456,325.078991 279.404005,324.297839 C279.404005,324.297839 280.446286,318.328135 281.362991,316.963092 C282.279695,315.59805 280.735111,310.785802 280.735111,310.785802 C280.735111,310.785802 279.322381,303.331536 279.404005,299.928365 C279.48563,296.525194 275.737186,284.724179 275.737186,284.724179 C275.256173,283.958176 275.052255,283.049936 275.159537,282.151356 C275.234882,281.446818 274.795366,280.301943 274.299341,279.276588 L274.142371,278.955772 C274.333699,278.709142 274.565053,278.496494 274.82676,278.32672 C275.856483,277.697668 276.339951,276.043261 276.34623,274.879515 L262.149864,241.357335 C262.149864,241.256687 268.723767,227.801265 268.704931,227.700617 C268.315645,225.492644 264.598596,219.63617 264.598596,219.63617 L264.598596,219.63617 C264.562908,219.56278 264.508822,219.499923 264.441626,219.453745 C263.606546,219.070024 260.781086,217.465941 260.781086,217.465941 C258.56467,214.723275 256.486387,214.157128 255.130166,214.175999 C254.703678,214.170728 254.27929,214.236631 253.874406,214.371005 C253.72978,214.415999 253.589082,214.472805 253.453727,214.540849 L253.390939,215.088125 C253.275251,213.822356 253.375039,212.546095 253.686042,211.313813 C253.717436,211.206874 253.74883,211.093645 253.773946,210.986706 C253.981146,210.986706 254.188346,210.986706 254.401826,210.986706 C257.086198,210.99506 259.663937,209.934713 261.567963,208.03893 C263.471989,206.143147 264.546331,203.567224 264.554644,200.87784 C264.55432,199.931228 264.423317,198.989209 264.165359,198.078559 L264.115128,197.933877 L264.429068,197.795486 C265.684828,197.329987 267.260807,198.122593 268.277972,197.279663 C268.646563,196.913335 268.910984,196.455163 269.043986,195.952363 C269.325737,195.278887 269.513767,194.569812 269.602799,193.845039 C269.602799,193.719229 269.602799,193.593419 269.602799,193.467608 C269.605915,193.42993 269.605915,193.392057 269.602799,193.354379 C269.605782,193.308297 269.605782,193.262069 269.602799,193.215987 C269.602799,193.159373 269.602799,193.102758 269.602799,193.046143 C269.602799,192.989529 269.602799,193.046143 269.602799,193.046143 C269.545995,192.583834 269.358666,192.14737 269.062822,191.788039 C268.39727,191.008015 267.285922,190.819299 266.444563,190.246862 C265.75671,189.712865 265.186036,189.042624 264.768124,188.277929 C264.349118,187.517715 263.79847,186.838238 263.141914,186.271254 C262.461946,185.699106 261.521598,185.551372 260.699461,185.887532 C260.453677,186.056014 260.182263,186.183476 259.895775,186.264963 C259.584234,186.269254 259.277663,186.186477 259.010464,186.025923 C256.122217,184.673462 252.731665,184.912501 249.592265,185.315095 C248.316359,185.416795 247.064243,185.718203 245.881495,186.208348 C244.684951,186.701646 243.766155,187.6981 243.369975,188.932143 C243.112544,189.907174 243.307187,190.963981 242.999526,191.926431 C242.786047,192.555483 242.371646,193.134211 242.107936,193.769553 C241.979833,194.102493 241.899502,194.45195 241.869342,194.807489 L241.869342,194.807489 C241.869342,194.807489 241.869342,194.876685 241.869342,194.908137 C241.762602,196.336085 242.321415,197.839519 242.591404,199.311501 C242.961853,201.318177 242.773489,203.500987 243.633685,205.400724 C243.719554,205.633555 243.828955,205.856981 243.960182,206.067519 C243.6588,206.696571 243.332302,207.363366 243.018362,207.986128 C242.553731,207.854027 241.134722,207.539501 241.084492,208.785024 C241.07464,209.797413 240.838644,210.794745 240.393824,211.703825 C240.327767,211.756241 240.258571,211.804559 240.186624,211.848507 C240.02948,211.920571 239.935928,212.085227 239.954308,212.257391 L239.954308,212.257391 L239.791059,212.383201 C239.719102,212.387789 239.649702,212.41169 239.590138,212.452397 C239.502234,212.301424 239.21341,212.288843 238.296705,213.383394 C237.076619,214.654866 235.673462,215.736232 234.133861,216.591559 C234.133861,216.591559 227.96808,220.900565 227.635303,222.882079 C227.302527,224.863592 225.243081,233.519348 226.297919,236.394115 Z M253.372102,215.371198 C253.372102,215.371198 253.372102,215.327164 253.372102,215.302002 L253.447448,215.339745 L253.372102,215.371198 Z M270.123939,356.278841 C269.957129,356.349753 269.777726,356.386128 269.59652,356.38578 L270.123939,356.278841 Z" id="Shape" fill="url(#linearGradient-1)"></path>
                <path d="M255.629035,373.779179 C248.582505,375.182286 247.299095,369.439942 247.299095,369.439942 C247.299095,369.439942 246.419043,364.334193 246.0768,363.950937 C245.999246,363.802429 245.979501,363.627542 246.021797,363.463747 L246.021797,363.463747 C246.205839,362.598717 246.55077,361.781538 247.036302,361.060278 C247.476328,360.508129 247.115751,358.208594 247.115751,358.208594 L255.280681,356 C255.629762,356.819294 255.898062,357.674817 256.081284,358.552874 C256.166845,359.358362 257.364694,363.022029 257.242465,363.528706 C257.120235,364.035383 257.768051,365.613878 257.853612,366.425861 C257.939173,367.237844 258.935343,368.426587 259.014792,368.848818 C259.137691,369.233438 259.284696,369.608874 259.454818,369.972603 C259.672711,370.53228 259.846468,371.110235 259.974294,371.700503 C260.389874,373.480369 255.629035,373.779179 255.629035,373.779179 Z" id="Path" fill="#444053"></path>
                <path d="M255.632731,373.790418 C248.583496,375.122112 247.299594,369.672031 247.299594,369.672031 C247.299594,369.672031 246.419204,364.826144 246.07683,364.462394 C245.999245,364.321444 245.979493,364.155458 246.021805,364 L247.715334,368.9322 C247.715334,368.9322 249.121512,371.885356 254.324373,371.435292 C257.289576,371.188682 258.744666,370.63381 259.453869,370.202242 C259.671845,370.733433 259.845669,371.281973 259.973544,371.842199 C260.395397,373.506816 255.632731,373.790418 255.632731,373.790418 Z" id="Path" fill="#000000" opacity="0.1"></path>
                <path d="M251,365.999904 C251,365.999904 252.876623,366.030469 253,365 L251,365.999904 Z" id="Path" fill="#000000" opacity="0.1"></path>
                <path d="M282.711855,317.413293 C281.804767,318.770007 280.771695,324.69307 280.771695,324.69307 C280.387567,325.477314 280.172958,326.333278 280.141773,327.205504 C280.074915,328.312778 279.863146,329.406583 279.511852,330.459105 L277.124448,338.976256 C277.251308,340.296474 277.034338,341.626995 276.494526,342.839123 C275.631533,344.447081 275.713423,343.950875 276.122872,346.752239 C276.532321,349.553603 275.631533,352.14141 274.144917,352.964232 C272.658302,353.787054 274.806335,355.721628 274.806335,355.721628 C274.806335,355.721628 265.313412,358.271748 263.329159,356.707758 C261.344905,355.143768 264.36223,347.411753 264.36223,347.411753 C264.36223,347.411753 263.870891,340.91083 264.198451,339.962387 C264.52601,339.013943 265.930736,330.94903 265.930736,330.94903 C265.930736,330.94903 266.800028,327.287158 266.466169,326.671611 C266.132311,326.056065 266.674044,324.284799 266.674044,324.284799 C266.674044,324.284799 268.078769,322.306258 267.933887,321.690711 C267.936251,321.090587 268.078584,320.499238 268.349636,319.963413 C268.349636,319.963413 264.141758,313.544145 264.507112,312.350739 C264.872467,311.157332 264.343333,309.210196 264.343333,309.210196 C264.343333,309.210196 263.814198,308.299439 263.171678,307.212811 C262.390575,305.87494 261.445692,304.279545 261.124432,303.777058 C260.386753,302.187867 259.745183,300.556051 259.20317,298.890374 L258.812619,297.772341 C258.812619,297.772341 258.182697,309.86971 257.552775,311.100803 C256.922853,312.331895 256.110254,322.092701 256.110254,322.092701 C255.789049,322.959831 255.647614,323.882925 255.694505,324.806129 C255.776395,326.326152 254.37167,332.971539 254.37167,332.971539 C254.37167,332.971539 253.741748,337.66351 254.170095,338.900883 C254.598441,340.138257 254.251984,349.226986 254.251984,349.226986 C254.251984,349.226986 256.519703,350.998252 257.099231,352.367529 C257.678759,353.736805 257.017341,357.430083 257.017341,357.430083 C257.017341,357.430083 250.41576,360.721371 247.480324,359.854582 C244.544888,358.987792 245.748039,354.013173 245.748039,354.013173 C245.748039,354.013173 243.770084,350.721884 243.770084,349.446824 C243.623071,347.706647 243.387597,345.975029 243.064572,344.258648 C240.544884,339.648332 241.540161,328.461721 241.130712,327.550963 C240.721262,326.640206 241.993705,323.273545 243.020477,321.753522 C244.04725,320.2335 243.650399,316.100546 243.020477,314.919702 C242.390555,313.738858 243.650399,309.612186 243.650399,309.612186 C243.650399,309.612186 242.453548,301.628927 242.497642,300.397834 C242.541737,299.166742 241.46457,295.498588 241.46457,295.498588 C241.46457,295.498588 240.393703,293.614263 240.639373,293.030122 C240.885042,292.445981 239.814175,290.969926 240.103939,290.316694 C240.393703,289.663461 239.85197,287.640952 239.316537,286.447546 C238.924592,285.216146 238.629732,283.956095 238.434646,282.678895 C238.182677,281.25937 238,280.009434 238,280.009434 L244.809455,274.538609 L261.817346,270.091601 L268.267746,268 L274.497673,277.792211 C274.497673,277.792211 275.127595,278.816028 275.713423,279.996872 C276.204762,281.014407 276.639408,282.151284 276.563817,282.854765 C276.460092,283.745809 276.664543,284.645463 277.143345,285.404885 C277.143345,285.404885 280.853585,297.13167 280.771695,300.479489 C280.689805,303.827307 282.094531,311.264111 282.094531,311.264111 C282.094531,311.264111 283.618942,316.056578 282.711855,317.413293 Z" id="Path" fill="#3F3D56"></path>
                <path d="M244,323.639153 C244,323.639153 251.511105,320.636906 253.726001,322.758657 C255.940897,324.880408 244,323.639153 244,323.639153 Z" id="Path" fill="#000000" opacity="0.1"></path>
                <path d="M249,326 C249,326 240.77134,329.407538 243.586964,329.953981 C246.402587,330.500424 249,326 249,326 Z" id="Path" fill="#000000" opacity="0.1"></path>
                <path d="M270,321 C270,321 267.158272,321.205461 268.249496,321.841107 C269.340719,322.476753 270,321 270,321 Z" id="Path" fill="#000000" opacity="0.1"></path>
                <path d="M274,322 C273.953433,322.178685 264.367345,324.707347 266.243318,325.833603 C268.119291,326.95986 274,322 274,322 Z" id="Path" fill="#000000" opacity="0.1"></path>
                <path d="M245,346.714839 C246.428269,346.550038 254.402768,343.681472 251.281737,345.741483 C249.580151,346.945884 247.163889,347.320284 245,346.714839 Z" id="Path" fill="#000000" opacity="0.1"></path>
                <path d="M250,350 C250,350 250.518907,352.268921 252.495695,351.97346 C254.472483,351.677998 250,350 250,350 Z" id="Path" fill="#000000" opacity="0.1"></path>
                <path d="M247,354.766374 C247.454568,354.639255 252.87151,352.141366 252.997779,353.310861 C253.124048,354.480356 247.827062,356.488837 247.416688,355.891378 C247.178568,355.561603 247.034483,355.172593 247,354.766374 L247,354.766374 Z" id="Path" fill="#000000" opacity="0.1"></path>
                <path d="M265,352 C265.623053,351.961573 271.772586,349.94413 273,351.750221 L265,352 Z" id="Path" fill="#000000" opacity="0.1"></path>
                <path d="M271,353.97357 C271,353.97357 271.907407,352.46357 272.814815,353.25357 C273.722222,354.04357 271,353.97357 271,353.97357 Z" id="Path" fill="#000000" opacity="0.1"></path>
                <path d="M256,364 C256.097919,364.495482 256.490449,364.888012 257,365 L256,364 Z" id="Path" fill="#000000" opacity="0.1"></path>
                <path d="M287.816913,367.375255 C287.39706,369.073055 281.467455,369.237155 278.638297,368.782725 C275.809139,368.328295 269.91829,366.674676 269.91829,366.674676 C269.91829,366.674676 263.743233,366.094016 261.92172,365.349256 C260.100207,364.604496 261.540623,362.704728 261.540623,362.704728 C261.540623,362.704728 261.540623,362.641612 261.540623,362.528005 C261.495409,361.833737 261.372683,359.328062 261.805453,358.652729 C262.315735,357.863789 262.018609,355.30131 262.018609,355.30131 C262.018609,355.30131 270.777372,356.95493 270.945313,356.172301 C271.113254,355.389672 272.469699,354.278843 273.102707,354.020071 C273.735715,353.761299 274.207242,356.090251 274.207242,356.090251 C274.207242,356.090251 278.186149,359.397489 278.43806,360.596679 C278.689971,361.795868 281.480374,362.414398 281.480374,362.414398 C283.292464,362.889098 285.07406,363.468678 286.815727,364.150067 C287.465282,364.448188 287.908508,365.055946 287.984853,365.753194 C288.030266,366.299361 287.973354,366.849042 287.816913,367.375255 Z" id="Path" fill="#444053"></path>
                <path d="M287.815671,368.242704 C287.395838,370.079015 281.466508,370.256503 278.637481,369.764999 C275.808454,369.273496 269.917877,367.484969 269.917877,367.484969 C269.917877,367.484969 263.743106,366.856937 261.921677,366.051417 C260.100249,365.245898 261.540598,363.19114 261.540598,363.19114 C261.540598,363.19114 261.540598,363.122876 261.540598,363 L270.39584,365.047931 C270.39584,365.047931 274.755642,367.013945 277.545915,367.013945 C279.987404,367.013945 285.44523,368.072043 287.983604,366.46783 C288.031403,367.065335 287.974473,367.667034 287.815671,368.242704 Z" id="Path" fill="#000000" opacity="0.1"></path>
                <path d="M276,361 C276,361 275.602446,363.246101 274,364 L276,361 Z" id="Path" fill="#000000" opacity="0.1"></path>
                <path d="M303.266063,261.873802 C300.67465,262.890127 294.694465,263 292.036605,263 C291.225958,263 290.707675,263 290.707675,263 L289,259.40166 L290.707675,256.400754 C290.707675,256.400754 292.275812,255.954395 294.362233,255.562972 C297.438705,254.993006 301.671347,254.546647 303.664742,255.830788 C307.013646,257.980178 306.654835,260.589661 303.266063,261.873802 Z" id="Path" fill="#FABDBD"></path>
                <path d="M265.615822,221.818195 L266.334385,221 C266.334385,221 270.021748,226.78358 270.406242,228.963352 C270.790736,231.143125 271.288688,233.653923 271.288688,233.653923 C271.288688,233.653923 272.221559,236.489501 272.832968,237.7449 C273.35354,238.695967 273.759719,239.704262 274.04318,240.749113 C274.093605,241.292495 273.822568,242.491682 274.976051,243.24742 C276.129534,244.003158 276.406874,246.082998 276.406874,246.082998 C276.406874,246.082998 280.592189,250.117763 282.798303,250.230187 C285.004418,250.342611 291.326512,251.429374 291.112204,252.516137 C290.897896,253.602901 293.753238,254.264952 294.894115,254.539766 C296.034991,254.814579 287.468963,258.093607 292.511511,262.315745 C292.511511,262.315745 289.315796,262.940321 288.988031,263.733534 C288.660265,264.526746 285.300668,263.29633 285.300668,263.29633 C285.300668,263.29633 284.582105,261.603727 282.104953,261.497549 C279.627801,261.391371 278.360861,260.298362 278.360861,260.135972 C278.360861,259.973582 275.88371,258.60576 274.509615,258.224768 C273.135521,257.843776 271.313901,257.681386 271.257172,257.294149 C271.200443,256.906911 263,221.836933 263,221.836933 L265.615822,221.818195 Z" id="Path" fill="#6C63FF"></path>
                <path d="M265.615822,221.818433 L266.334385,221 C266.334385,221 270.021748,226.78526 270.406242,228.971914 C270.790736,231.158567 271.288688,233.663847 271.288688,233.663847 C271.288688,233.663847 272.221559,236.500249 272.832968,237.756013 C273.3522,238.705789 273.758327,239.712151 274.04318,240.754852 C274.093605,241.304639 273.822568,242.504175 274.976051,243.253885 C276.129534,244.003594 276.406874,246.090287 276.406874,246.090287 C276.406874,246.090287 280.592189,250.132472 282.798303,250.238681 C285.004418,250.34489 291.326512,251.438216 291.112204,252.531543 C290.897896,253.62487 293.753238,254.280866 294.894115,254.549512 C296.034991,254.818158 287.468963,258.110633 292.511511,262.315255 C292.511511,262.315255 289.315796,262.940014 288.988031,263.733456 C288.660265,264.526899 285.300668,263.296126 285.300668,263.296126 C285.300668,263.296126 284.582105,261.603031 282.104953,261.496822 C279.627801,261.390613 278.360861,260.297287 278.360861,260.128602 C278.360861,259.959917 275.88371,258.604192 274.509615,258.22309 C273.135521,257.841987 271.313901,257.673302 271.257172,257.2922 C271.200443,256.911098 263,221.818433 263,221.818433 L265.615822,221.818433 Z" id="Path" fill="#000000" opacity="0.05"></path>
                <path d="M349,371.5 C390.017657,371.5 423.5,378.197477 423.5,386 C423.5,393.802523 390.017657,400.5 349,400.5 L346.547574,400.492013 C306.646174,400.231818 274.5,393.650457 274.5,386 L273.5,386 C273.5,394.766352 307.172862,401.5 349,401.5 C390.816243,401.5 424.5,394.762235 424.5,386 C424.5,377.237765 390.816243,370.5 349,370.5 L349,371.5 Z" id="Path" fill="#B1AFBA"></path>
                <polygon id="Rectangle" fill="#444053" transform="translate(321.789712, 98.703178) rotate(9.630000) translate(-321.789712, -98.703178) " points="316.426029 58.8019779 327.179241 58.7985019 327.153395 138.604378 316.400183 138.607854"></polygon>
                <polygon id="Path" fill="#D0D2D5" points="347 375.68732 349.15562 393 351 375"></polygon>
                <polygon id="Path" fill="#3F3D56" points="270 366.966637 270 377.143986 272.333333 386 273.999109 386 276.001783 376.486392 277 365"></polygon>
                <path d="M265.711855,326 L271,326.999063 C271,326.999063 265.004566,342.665626 269.235082,346 L262.538968,346 C262.538968,346 260.06676,333.998751 265.711855,326 Z" id="Path" fill="#D0D2D5"></path>
                <path d="M265.711855,326 L271,326.999063 C271,326.999063 265.004566,342.665626 269.235082,346 L262.538968,346 C262.538968,346 260.06676,333.998751 265.711855,326 Z" id="Path" fill="#000000" opacity="0.1"></path>
                <path d="M299.445829,137 L283.572493,238.91599 C283.572493,238.91599 260.100022,347.544333 269.024516,369 L280.271484,369 L314,160.471257 L299.445829,137 Z" id="Path" fill="#D0D2D5"></path>
                <path d="M340.754207,125 L353.211758,227.421178 C353.211758,227.421178 362.283899,357.899254 352.349556,379 L342.535668,379 L325,147.908844 L340.754207,125 Z" id="Path" fill="#D0D2D5"></path>
                <path d="M297.808548,99.3847987 C299.510318,93.6874455 304.839909,89.8400861 310.801851,90.0051093 C320.72093,90.2552344 336.054409,92.0561347 344.053667,100.222718 C356.450947,112.910311 335.677973,155.644176 335.677973,155.644176 C335.677973,155.644176 316.228798,191.368286 298.49868,145.964336 C298.473584,146.001855 291.120541,121.6897 297.808548,99.3847987 Z" id="Path" fill="#444053"></path>
                <path d="M297.808548,99.3847987 C299.510318,93.6874455 304.839909,89.8400861 310.801851,90.0051093 C320.72093,90.2552344 336.054409,92.0561347 344.053667,100.222718 C356.450947,112.910311 335.677973,155.644176 335.677973,155.644176 C335.677973,155.644176 316.228798,191.368286 298.49868,145.964336 C298.473584,146.001855 291.120541,121.6897 297.808548,99.3847987 Z" id="Path" fill="#000000" opacity="0.1"></path>
                <path d="M304.018546,108.639425 C305.253137,104.611157 309.070487,101.893772 313.341054,102.003187 C320.451442,102.183723 331.448842,103.459922 337.168754,109.249511 C346.061479,118.238936 331.164426,148.531555 331.164426,148.531555 C331.164426,148.531555 317.259668,173.850109 304.492572,141.683655 C304.492572,141.664979 299.215084,124.451849 304.018546,108.639425 Z" id="Path" fill="#444053"></path>
                <path d="M339.067113,369.814127 C339.173978,371.441622 339.425426,373.151123 340.450076,374.425364 C342.147348,376.532276 345.23387,376.696287 347.874072,377.35864 C349.901201,377.940609 351.867463,378.718027 353.745378,379.680028 L359.459529,382.39252 C357.994288,382.477474 356.549611,382.779321 355.172344,383.288273 C354.43686,383.559522 353.632227,384.007399 353.525361,384.77699 C353.496708,385.433867 353.87401,386.040659 354.474577,386.303555 C355.071797,386.550227 355.715141,386.664281 356.360435,386.637885 C359.763822,386.733912 363.169386,386.554602 366.544071,386.101695 L366.946388,386.044922 C368.681377,386.907032 370.407986,387.788066 372.126212,388.688024 C372.842838,389.066512 373.704047,388.688024 374.307522,388.158142 C375.044405,387.503652 375.695043,386.757472 376.24367,385.937684 C376.344249,386.114311 376.444828,386.28463 376.526549,386.45495 C377.079734,387.521022 377.601488,388.915117 376.809427,389.823486 C376.180808,390.529996 374.992717,390.64985 374.634404,391.507754 C374.433932,392.144589 374.671113,392.83814 375.21902,393.217255 C375.765786,393.579425 376.395183,393.796467 377.048303,393.848067 C378.602995,394.062622 380.180471,394.049873 381.731518,393.810218 C382.572121,393.751216 383.368823,393.411436 383.994548,392.845076 C384.529393,392.114348 384.811914,391.228392 384.799181,390.321828 L385.87412,378.065149 C385.972062,377.483087 385.92894,376.885919 385.748397,376.324108 C385.320935,375.283268 384.082555,374.848008 382.963612,374.665072 L382.844175,374.665072 C383.774531,374.665072 384.730033,374.620915 385.735824,374.620915 C386.612052,374.677574 387.491016,374.566249 388.325736,374.292893 C389.92243,373.662081 390.783639,371.977813 391.468834,370.426015 C392.726073,367.700907 394.171898,364.748706 393.983312,361.720808 L393.492989,361.500024 C393.448985,358.276575 392.10374,355.267601 391.60713,352.119849 C392.152765,351.27433 392.443115,350.288518 392.443194,349.281194 C392.377989,348.173704 392.138233,347.083588 391.732854,346.051437 C389.74013,340.109187 387.747407,334.148013 385.08206,328.470704 C383.357496,324.689856 381.251078,321.096455 378.795865,317.746899 C378.154673,316.905816 377.488336,316.064734 376.796855,315.223651 C376.293959,314.643304 375.16873,313.823248 374.961286,313.085198 C374.753842,312.347148 375.193875,311.628022 374.961286,310.871048 C374.901714,310.673781 374.826023,310.481783 374.734983,310.297009 C376.205953,308.341491 375.791064,305.515453 375.275596,303.080519 L374.646976,300.046313 C374.512476,299.209573 374.249524,298.398814 373.867488,297.642919 C373.462823,296.994769 372.955336,296.417327 372.365088,295.933418 C369.27228,293.132612 365.450273,291.271717 361.974007,288.950328 C358.296583,286.496469 355.008903,283.512728 351.714937,280.566836 C350.709146,279.671083 349.445621,278.70594 348.144378,279.084428 C346.843136,279.462915 346.302523,280.875934 346.25852,282.16279 C346.234451,283.967647 346.977438,285.697389 348.301533,286.919113 C350.577136,289.007101 354.015685,289.177421 356.725035,290.653521 C357.656026,291.19604 358.54115,291.814202 359.371523,292.5018 L367.241839,298.702683 C367.838602,299.060933 368.276932,299.633878 368.467647,300.304945 C368.498619,300.709637 368.434007,301.115952 368.279061,301.490872 C367.98361,302.399242 367.480714,303.541011 367.109829,304.695397 L366.481209,304.241213 C365.178348,303.264166 363.78229,302.418961 362.313462,301.717965 C360.365175,300.919329 358.306855,300.423695 356.209567,300.248172 C351.564069,299.724598 347.408894,300.443724 344.567534,304.335835 C343.978564,305.225184 343.230447,305.997299 342.361079,306.613066 C341.716971,306.91389 341.114705,307.297716 340.569514,307.754836 C339.111116,309.376023 339.940894,312.063282 341.311285,313.432145 C342.471022,314.513584 343.89999,315.26107 345.447601,315.59583 C347.213404,319.549916 351.653151,321.546902 355.769533,320.238607 C355.867022,321.050716 355.885969,321.870386 355.826109,322.686158 C355.765124,323.536687 356.090974,324.369225 356.712462,324.950773 C357.043277,325.176604 357.408437,325.347038 357.793688,325.455423 C359.184354,325.960565 360.50146,326.650055 361.709987,327.505562 C360.290615,329.048616 359.119873,330.804469 358.240008,332.709761 C357.142132,335.277255 357.377348,338.22299 358.868627,340.582296 L358.906344,340.632761 C358.800613,341.025941 358.604716,341.38886 358.3343,341.692525 C357.537886,342.316309 356.393076,342.199482 355.738102,341.427584 C355.198869,340.787765 354.742627,340.081939 354.380284,339.32698 C353.123617,337.266629 351.077656,335.815774 348.722708,335.315015 C347.861383,335.093945 346.954358,335.13123 346.113937,335.422253 C345.269905,335.726003 344.678624,336.494149 344.598965,337.390387 C344.598965,338.342913 345.290446,339.131428 345.969355,339.806397 C348.052264,341.974254 350.371816,343.899849 352.884169,345.546787 C353.56888,345.971847 354.276069,346.359314 355.002617,346.707481 C353.745378,346.44254 352.504902,346.183907 351.28119,345.931582 C349.566482,345.502462 347.795116,345.34706 346.032217,345.47109 C344.251112,345.610869 342.630894,346.558519 341.63188,348.044803 C340.939222,349.365199 340.792436,350.90616 341.223278,352.334325 C341.659186,353.750695 342.310121,355.091148 343.15314,356.308441 C344.475833,358.539456 346.098226,360.577174 347.974651,362.364237 C346.403102,362.837346 344.831554,363.354612 343.297722,363.922343 C341.763891,364.490073 340.154625,365.183967 339.450571,366.596986 C339.037601,367.615465 338.905158,368.726643 339.067113,369.814127 L339.067113,369.814127 Z M362.206597,348.366517 L362.263172,348.366517 C362.597346,348.21471 362.882577,347.972183 363.086664,347.666316 C364.042452,346.383432 364.719194,344.913476 365.073101,343.351561 C365.43844,343.302221 365.796976,343.211216 366.141755,343.080312 C365.666881,343.53392 365.39867,344.163448 365.399984,344.821353 L368.945398,346.562394 C369.20132,346.659155 369.420977,346.83329 369.574017,347.060736 C369.671476,347.296147 369.695584,347.555663 369.643165,347.805094 C369.542586,348.618842 369.385431,349.432589 369.284852,350.240029 C368.222485,349.924623 367.178977,349.672298 366.242334,349.419973 C364.90966,349.054102 363.558128,348.713464 362.206597,348.372825 L362.206597,348.366517 Z" id="Shape" fill="url(#linearGradient-2)"></path>
                <path d="M362.535966,314.382578 C364.348103,314.847564 366.266803,314.53123 367.845661,313.507172 C368.158269,313.282175 368.507031,313.115358 368.875994,313.014351 C369.539931,312.954402 370.192151,313.221553 370.63325,313.734129 C372.150306,315.283921 372.327296,317.838809 371.543484,319.881422 C370.759672,321.924036 369.185726,323.532189 367.535928,324.926353 C366.203417,326.052229 364.794473,327.079373 363.319778,328 C362.499166,326.026972 360.941821,324.473742 358.996169,323.687816 C357.264197,323.000461 355.999984,321.158866 355.007577,319.550714 C354.268012,318.357568 353.610622,318.409444 354.274334,317.177391 C355.023601,315.994387 355.906214,314.906128 356.903897,313.935148 C357.447355,313.344828 357.922481,312.692048 358.319815,311.989802 C358.76229,311.172757 358.661153,310.641029 359.343828,311.289477 C359.792623,311.717453 359.975934,312.644735 360.494262,313.144041 C361.069486,313.717103 361.769304,314.141626 362.535966,314.382578 Z" id="Path" fill="#FABDBD"></path>
                <path d="M368.70795,302.100003 C368.856175,301.731105 368.919036,301.334002 368.891912,300.937884 C368.702015,300.280443 368.26956,299.717675 367.680299,299.361171 L359.92217,293.267899 C359.10792,292.591922 358.237932,291.98466 357.321325,291.452481 C354.644358,290.001403 351.26326,289.831796 349.017653,287.783954 C347.712053,286.573288 346.980094,284.875185 347.000412,283.10407 C347.000412,281.847725 347.634764,280.428056 348.83369,280.076279 C350.032616,279.724503 351.3711,280.654198 352.360689,281.539921 C355.60223,284.429514 358.837427,287.363079 362.459579,289.775261 C365.885082,292.061808 369.659478,293.883508 372.710713,296.641185 C373.266893,297.110121 373.744371,297.663518 374.125319,298.280715 C374.498186,299.028125 374.756865,299.826239 374.892885,300.648925 L375.527238,303.626462 C376.060094,306.139152 376.491453,309.060153 374.785046,310.988642 C374.282333,311.614061 373.524131,311.984862 372.717057,312 C372.154119,311.931677 371.611797,311.747672 371.124832,311.459772 C369.856128,310.831599 367.559772,310.203427 367.172817,308.632996 C366.678022,306.666816 368.105315,303.921703 368.70795,302.100003 Z" id="Path" fill="#FABDBD"></path>
                <path d="M357.088515,341.109534 C356.551807,340.482522 356.096048,339.794064 355.731394,339.0595 C354.486255,337.050654 352.442916,335.630431 350.084227,335.134435 C349.23468,334.925858 348.341174,334.960588 347.511485,335.234437 C346.664014,335.537764 346.074432,336.291094 346,337.165719 C346,338.090734 346.688208,338.865747 347.363553,339.522008 C349.444028,341.645415 351.765776,343.532521 354.284227,345.147101 C356.806319,346.754331 359.698947,347.729231 362.703522,347.984648 C363.006197,348.020736 363.31332,347.993023 363.603982,347.903396 C363.937208,347.753517 364.221904,347.517931 364.427259,347.222135 C366.022358,345.234602 366.575498,342.653309 367,340.172018 C366.845636,341.065783 361.667994,338.978249 361.082695,339.247003 C360.220827,339.64076 360.304441,340.815779 359.680551,341.378288 C358.885838,341.991076 357.732279,341.87147 357.088515,341.109534 Z" id="Path" fill="#FABDBD"></path>
                <path d="M392.992813,361.577514 C393.022521,361.894629 392.959737,362.213495 392.811777,362.496963 C392.456171,363.042291 391.65444,363.048633 391.001418,362.953517 C389.493476,362.704022 388.004983,362.352308 386.546641,361.900906 L373.27283,358.140676 C373.061841,358.100978 372.865448,358.006862 372.70386,357.868012 C372.56348,357.705425 372.471729,357.507901 372.438771,357.297319 C371.977561,355.429762 371.87886,353.493757 372.147821,351.590393 C372.163877,351.315847 372.255485,351.050697 372.412909,350.823129 C372.711662,350.553013 373.105842,350.407474 373.512056,350.417303 C375.591374,350.210342 377.680837,350.117196 379.770726,350.138298 C381.126877,350.194442 382.485307,350.164789 383.837568,350.049523 C385.583272,349.846611 387.594063,348.863751 389.346232,349.015936 C390.865641,349.142756 390.800985,350.284142 390.956159,351.552347 C391.389352,354.919434 392.960485,358.140676 392.992813,361.577514 Z" id="Path" fill="#FABDBD"></path>
                <path d="M352.904963,345.490097 C351.257587,345.071266 349.553277,344.919367 347.857438,345.04023 C346.144878,345.174981 344.58839,346.083132 343.63261,347.505256 C342.959262,348.780127 342.817036,350.26792 343.236726,351.646501 C343.660891,353.006967 344.286339,354.296805 345.092434,355.473454 C346.519128,357.932135 348.353327,360.132447 350.517286,361.981124 C351.599782,362.83772 352.793621,363.546415 353.832817,364.44615 C356.047295,366.375033 357.420518,369.068075 358.738071,371.687165 C359.975209,374.152191 361.212348,376.666518 361.744317,379.378047 C361.753577,379.589512 361.84977,379.787864 362.010302,379.926516 C362.182057,380.009488 362.379449,380.022746 362.560828,379.963491 L368.653735,378.841904 C369.004985,378.856672 369.335845,378.6775 369.514434,378.375809 C369.693022,378.074117 369.690303,377.698955 369.507361,377.399864 C368.185444,371.73976 365.711688,366.410133 362.239173,361.740784 C365.512909,364.82276 370.078968,366.140176 374.499214,365.278096 C375.350997,365.157535 376.154434,364.810538 376.825035,364.273598 C378.185887,363.041085 378.12403,360.93965 377.820931,359.146343 C377.548233,357.54827 377.172185,355.969419 376.695135,354.419655 C375.550782,350.722116 370.6146,349.72378 367.26814,348.824045 C362.517529,347.57099 357.729803,346.459674 352.904963,345.490097 Z" id="Path" fill="#3F3D56"></path>
                <path d="M356.75314,359.200726 C357.5979,359.604461 358.363282,360.217375 359,361 C357.936647,359.548972 354.896778,358.823458 353.406881,358.14873 C351.562534,357.321644 349.549973,356.472793 348,355 C350.998217,356.142007 353.923654,357.545956 356.75314,359.200726 L356.75314,359.200726 Z" id="Path" fill="#000000" opacity="0.1"></path>
                <path d="M375.901895,385.665923 C376.43168,386.708034 376.936535,388.054094 376.176137,388.941129 C375.590256,389.623464 374.418495,389.741321 374.069459,390.572529 C373.873068,391.190482 374.10278,391.863768 374.636642,392.234944 C375.162583,392.591102 375.772619,392.804879 376.406749,392.855248 C377.913168,393.060009 379.441386,393.047473 380.944209,392.81803 C381.758346,392.758786 382.528842,392.4289 383.131912,391.881371 C383.656384,391.160908 383.929964,390.289628 383.911009,389.400154 L384.951882,377.50272 C385.044008,376.936701 385.00348,376.357151 384.833459,375.809289 C384.415863,374.798194 383.219171,374.38259 382.134668,374.202702 C380.922277,373.998195 379.688655,373.948168 378.463565,374.053829 C377.636854,374.064939 376.835364,374.338798 376.176137,374.835412 C375.563882,375.529308 375.186631,376.397403 375.097867,377.316629 C374.817392,378.730922 374.032063,380.691083 374.200347,382.123986 C374.306305,383.308767 375.378342,384.623812 375.901895,385.665923 Z" id="Path" fill="#6C63FF"></path>
                <path d="M362.120632,381.94492 C359.619158,381.641398 357.075859,381.907573 354.709431,382.720558 C353.948965,382.981172 353.115122,383.421734 353.001719,384.166346 C352.970666,384.802738 353.362694,385.39162 353.98899,385.649366 C354.609667,385.888983 355.278632,386.001161 355.95019,385.978236 C359.477195,386.06531 363.006054,385.891016 366.503314,385.457008 C367.411729,385.401905 368.292575,385.144392 369.071552,384.70619 C369.864834,384.237485 370.200638,383.318466 369.878713,382.497174 C369.458456,381.678101 368.311087,381.423691 367.757415,380.685284 C367.35717,380.151645 367.257109,379.363597 366.630058,379.084368 C366.156118,378.94414 365.642254,378.979712 365.195847,379.18365 C364.528772,379.400828 362.927793,379.618007 362.467511,380.13303 C362.268218,380.720517 362.15162,381.329553 362.120632,381.94492 Z" id="Path" fill="#6C63FF"></path>
                <circle id="Oval" fill="#FABDBD" cx="353.5" cy="312.5" r="8.5"></circle>
                <path d="M373.3182,309.740369 C371.99365,308.753677 370.323839,308.416292 368.710525,308.110736 C368.165855,307.938579 367.578624,307.967903 367.053268,308.19349 C366.70646,308.44812 366.431569,308.79053 366.256028,309.186548 C365.758764,310.004233 365.390245,310.895531 365.163745,311.828337 C364.939369,312.776069 365.172373,313.775531 365.791494,314.521051 C366.281138,315.030311 366.984216,315.284942 367.486415,315.794202 C368.146972,316.541233 368.421491,317.560383 368.227158,318.544208 C368.024668,319.509738 367.652556,320.430457 367.128598,321.262386 C365.918155,323.426186 364.536771,325.486948 362.998012,327.424437 C361.397253,329.442381 359.601892,331.383936 358.660269,333.790192 C357.594862,336.351631 357.829189,339.279133 359.288017,341.632802 C360.813447,343.886279 363.85175,345.095773 366.369022,344.121812 C365.905414,344.574338 365.646492,345.200802 365.653389,345.853298 L369.106006,347.591149 C369.361125,347.686356 369.580579,347.859937 369.733755,348.087678 C369.826433,348.32206 369.848284,348.579097 369.79653,348.826105 C369.525775,350.237863 369.384973,351.672079 369.375938,353.110258 C369.470101,354.542553 370.116682,356.051237 371.397289,356.675081 C372.571179,357.247999 373.964781,356.942443 375.245388,356.675081 C378.236056,356.060751 381.277639,355.736755 384.328911,355.707486 C385.848063,355.707486 387.417435,355.745681 388.817314,355.1473 C390.733683,354.290371 391.978461,352.375787 392,350.252034 C391.937479,349.14769 391.702279,348.060438 391.303199,347.030962 C389.363456,341.11081 387.417435,335.177926 384.818555,329.51877 C383.125745,325.752987 381.062558,322.170017 378.660341,318.824301 C378.032592,317.977656 377.404844,317.143742 376.708043,316.335291 C376.218399,315.756008 375.119839,314.941191 374.918959,314.202763 C374.718079,313.464336 375.144949,312.751371 374.918959,312.000212 C374.636916,311.092977 374.075974,310.301077 373.3182,309.740369 Z" id="Path" fill="#6C63FF"></path>
                <path d="M393.980504,361.713076 C390.340201,360.066612 386.699897,358.420147 382.914234,357.138876 C380.127126,356.198039 377.0177,355.461463 374.281152,356.519904 C373.459556,356.84177 372.713799,357.305998 371.923803,357.683571 C369.275735,358.921514 366.235828,359.131965 363.309681,359.44764 C356.798023,360.165682 350.399566,361.655944 344.254966,363.885667 C342.782413,364.417982 341.1961,365.12361 340.462983,366.472968 C340.048186,367.450649 339.908514,368.519343 340.058505,369.567826 C340.165945,371.146204 340.412423,372.805048 341.417299,374.036801 C343.085771,376.079408 346.113038,376.234151 348.704226,376.877881 C350.697791,377.443472 352.630309,378.19806 354.474361,379.130938 C360.528894,381.959638 366.589747,384.788338 372.53052,387.852248 C373.225717,388.217441 374.072593,387.852248 374.666671,387.338501 C376.456287,385.711352 377.747512,383.627956 378.395454,381.322097 C379.039575,379.027779 379.35856,376.657621 379.34345,374.2782 C381.669199,374.2782 383.558871,374.179165 385.88462,374.179165 C386.740095,374.231806 387.59799,374.124679 388.412609,373.863489 C389.973642,373.244518 390.820518,371.616622 391.522035,370.118711 C392.77339,367.475702 394.182743,364.609864 393.980504,361.713076 Z" id="Path" fill="#3F3D56"></path>
                <path d="M352,370.718412 C353.586621,370.008266 355.424406,369.991358 357.194805,370.00263 C358.2742,369.984516 359.353049,370.059998 360.417055,370.228073 C362.041992,370.626439 363.619995,371.172051 365.12791,371.856901 C368.885363,373.307463 372.925375,374.036276 377,373.998611" id="Path" fill="#000000" opacity="0.1"></path>
                <path d="M341.503446,314.194619 C342.776328,315.347478 344.354387,316.124546 346.056531,316.436652 C347.728568,316.815587 349.452053,316.960845 351.136952,317.327149 C353.207705,317.775556 355.471386,318.849205 355.940843,320.882823 C356.049217,321.697319 356.07077,322.520697 356.005152,323.339586 C355.943145,324.168725 356.261544,324.981718 356.873325,325.556356 C357.204917,325.776706 357.56941,325.945031 357.953718,326.055287 C364.856729,328.646862 369.446465,335.117525 369.529359,342.374757 C371.675269,341.14634 373.137233,339.027568 373.503663,336.614944 C373.503663,338.812768 375.432936,341.035853 374.339681,343 C376.750888,341.452382 378.391127,338.983039 378.861706,336.192195 C379.332285,333.401351 378.59011,330.544576 376.815582,328.316266 C375.966702,327.255248 374.886309,326.371066 373.998843,325.354257 C371.451654,322.466937 370.244541,318.667955 370.667631,314.870387 C370.854127,313.272544 371.310722,311.655755 370.969883,310.083174 C370.474703,307.904297 368.526137,306.388557 366.674034,305.093862 C365.37199,304.131375 363.976103,303.297863 362.506804,302.605522 C360.560937,301.814062 358.502442,301.321981 356.403868,301.146622 C351.767181,300.63506 347.644967,301.342405 344.770349,305.188596 C344.188082,306.067489 343.441852,306.830337 342.570977,307.436944 C341.925851,307.736366 341.322791,308.116337 340.776753,308.567434 C339.304074,310.171592 340.140093,312.824138 341.503446,314.194619 Z" id="Path" fill="#3F3D56"></path>
                <path d="M258.404697,223 C258.139566,222.890202 239.70974,215.28828 242.238183,213.776937 C243.744902,212.879174 245.600818,209.081443 246.868273,206.103969 C247.754198,204.030718 248.355592,202.351449 248.355592,202.351449 C248.355592,202.351449 263.151185,199.729205 257.855035,208.810176 C257.020413,210.200318 256.390979,211.703464 255.986186,213.273157 C254.460067,219.408948 258.255965,222.883743 258.404697,223 Z" id="Path" fill="#FABDBD"></path>
                <path d="M256.867467,208.635651 C256.041908,209.995071 255.419308,211.464998 255.018911,213 C251.237183,212.733697 247.914408,210.424839 246.383783,206.999809 C246.236097,206.679218 246.107941,206.3502 246,206.014515 C246.876305,203.987082 247.47117,202.344925 247.47117,202.344925 C247.47117,202.344925 262.106111,199.780633 256.867467,208.635651 Z" id="Path" fill="#000000" opacity="0.1"></path>
                <path d="M266,201.996491 C265.97863,206.730279 262.668824,210.80705 258.054543,211.783109 C253.440262,212.759168 248.773176,210.369748 246.850827,206.047115 C246.28651,204.772031 245.996595,203.39175 246,201.996491 C246.025923,197.010229 249.690507,192.797326 254.608774,192.09965 C259.527042,191.401974 264.210971,194.430606 265.612137,199.214434 C265.869113,200.119286 265.999648,201.055584 266,201.996491 Z" id="Path" fill="#FABDBD"></path>
                <path d="M275,279.997412 C274.272332,280.780803 273.763938,281.738253 273.525013,282.775231 C273.525013,282.775231 268.527857,286.150092 268.858457,284.032163 C269.189058,281.914233 266.251799,273.222551 266.251799,273.222551 L266.582399,285 C266.582399,285 250.592772,284.25841 249.416597,283.114603 C248.240422,281.970795 241.456751,279.727172 241.456751,279.727172 C241.456751,279.727172 239.365066,281.386322 237.438682,282.643253 C237.184373,281.222921 237,279.972274 237,279.972274 L243.872679,274.498336 L261.038481,270.048799 L267.485193,268 L273.772963,277.797782 C273.772963,277.797782 274.421449,278.815896 275,279.997412 Z" id="Path" fill="#000000" opacity="0.1"></path>
                <path d="M275.465576,279.721187 C274.158432,280.541501 273.664343,282.758227 273.664343,282.758227 C273.664343,282.758227 268.748478,286.120887 269.073701,284.010614 C269.398924,281.900341 266.534463,273.265131 266.534463,273.265131 L266.86594,285 C266.86594,285 251.130168,284.261091 249.979381,283.121419 C248.828593,281.981747 242.111495,279.758759 242.111495,279.758759 C242.111495,279.758759 236.295013,284.436426 235.231786,284.023138 C234.168558,283.60985 237.10807,275.657191 237.10807,275.657191 L240.135142,229.055858 C240.135142,229.055858 239.315831,215.191931 240.547925,214.697238 C240.73778,214.621904 240.911764,214.511438 241.060776,214.371617 C241.873832,213.645232 242.117749,212.167415 242.186546,210.92129 C242.267852,209.449735 244.231696,210.182381 244.231696,210.182381 L243.087163,211.660198 L253.244115,217.84073 L253.331675,217.897087 C253.73787,217.688 254.155481,217.501936 254.582532,217.339775 C255.483148,216.995368 256.677716,216.669748 257.459501,216.995368 C257.89633,217.219662 258.267128,217.554221 258.535237,217.965969 C259.116208,218.836721 259.580885,219.779842 259.917433,220.771316 L263.607459,227.001943 C263.607459,227.001943 265.483744,235.292747 265.483744,235.618368 C265.483744,235.943989 266.059138,243.495884 266.7346,244.316198 C267.410062,245.136512 268.047999,249.23808 267.804082,250.471682 C267.560165,251.705283 268.21061,256.295283 268.21061,256.295283 C270.918714,258.512008 272.307164,266.057642 272.307164,266.057642 C272.307164,266.057642 276.572584,274.511256 276.897807,275.49438 C277.223029,276.477504 276.778975,278.900874 275.465576,279.721187 Z" id="Path" fill="#444053"></path>
                <path d="M254,217.572135 C253.014374,218.998901 250.180698,221 250.180698,221 L242,214.222863 C242.800821,213.521572 243.041068,212.088761 243.10883,210.891728 C243.188912,209.464963 245.123203,210.178346 245.123203,210.178346 L244.889117,210.474581 C244.663178,210.76249 244.572395,211.130994 244.639358,211.488402 C244.70632,211.84581 244.924731,212.15852 245.240246,212.348722 L254,217.572135 Z" id="Path" fill="#000000" opacity="0.1"></path>
                <path d="M254,217.567269 C253.014374,218.993545 250.180698,221 250.180698,221 L242,214.219149 C242.800821,213.518098 243.041068,212.091823 243.10883,210.889158 C243.188912,209.468926 245.123203,210.176021 245.123203,210.176021 L244.889117,210.472154 C244.663178,210.759964 244.572395,211.128342 244.639358,211.485627 C244.70632,211.842912 244.924731,212.155514 245.240246,212.345651 L254,217.567269 Z" id="Path" fill="#444053"></path>
                <path d="M257,218.091969 C255.931677,219.201942 254.42236,220.463521 254.515528,219.830025 C254.608696,219.196528 253.614907,217.805 253,217.182333 C253.96683,216.917065 255.007742,216.941847 255.956522,217.252721 C256.38125,217.449715 256.740618,217.738748 257,218.091969 Z" id="Path" fill="#000000" opacity="0.1"></path>
                <path d="M258,216.996048 C256.9062,218.165436 255.36089,219.482417 255.45628,218.823927 C255.551669,218.165436 254.63593,217.086875 254,216.434061 C254.915739,216.121846 256.130366,215.82666 256.925278,216.121846 C257.363558,216.323617 257.734317,216.625201 258,216.996048 L258,216.996048 Z" id="Path" fill="#444053"></path>
                <path d="M241.35956,214.282183 C241.35956,214.282183 241.466162,213.302731 240.042703,214.993377 C238.848071,216.233058 237.474302,217.288582 235.966717,218.125127 C235.966717,218.125127 229.890364,222.379815 229.558014,224.363672 C229.225665,226.34753 227.25665,234.825713 228.303865,237.658013 C229.351079,240.490312 237.289845,254.065387 237.289845,254.065387 C237.289845,254.065387 235.207957,256.517135 235.697075,259.405582 C236.186193,262.294028 236.794456,266.267982 236.518543,267.141378 C236.24263,268.014775 236.850893,270.192027 235.891468,270.95313 C234.932044,271.714232 233.978891,273.024327 236.882246,274.771119 C236.882246,274.771119 237.427801,276.243416 236.932412,276.56782 C236.437023,276.892225 244.21902,280.273516 247.285415,278.476815 C250.351811,276.680114 255.88888,262.294028 255.995483,259.074939 C256.102085,255.85585 254.29611,245.237845 253.311603,242.72995 C252.327096,240.222055 249.367303,230.46497 248.106883,228.287717 C246.846463,226.110465 241.35956,214.282183 241.35956,214.282183 Z" id="Path" fill="#000000" opacity="0.1"></path>
                <path d="M240.384063,214.282075 C240.384063,214.282075 240.496937,213.302999 239.073472,214.992996 C237.871052,216.243528 236.48647,217.307239 234.966116,218.148488 C234.966116,218.148488 228.883466,222.401544 228.557385,224.38464 C228.231305,226.367736 226.256012,234.842665 227.303231,237.673878 C228.35045,240.505091 236.282978,254.074956 236.282978,254.074956 C236.282978,254.074956 234.201081,256.525764 234.696472,259.413102 C235.191863,262.30044 235.793858,266.272868 235.517944,267.145929 C235.24203,268.01899 235.844024,270.195407 234.890866,270.956218 C233.937709,271.717028 232.97201,273.02662 235.875378,274.772742 C235.875378,274.772742 236.427206,276.244474 235.931815,276.568754 C235.436423,276.893034 243.218453,280.273028 246.284861,278.477016 C249.351269,276.681005 254.882091,262.30044 254.994965,259.082586 C255.107839,255.864731 253.295585,245.250802 252.311074,242.743869 C251.326563,240.236936 248.366758,230.483596 247.106332,228.307179 C245.845907,226.130762 240.384063,214.282075 240.384063,214.282075 Z" id="Path" fill="#6C63FF"></path>
                <path d="M239,223 C239,223 243.139681,228.413043 242.996363,232 C242.996363,232 243.045973,226.18913 239,223 Z" id="Path" fill="#000000" opacity="0.1"></path>
                <path d="M254.098363,215.365297 C254.098363,215.365297 257.291895,213.480191 261.31168,218.274645 C261.31168,218.274645 264.229794,219.864417 265.088835,220.254006 C265.947875,220.643595 266.924952,230.842019 266.924952,230.842019 C266.924952,230.842019 268.813529,235.2406 268.295482,237.754075 C267.777435,240.26755 269.790606,248.951605 269.790606,248.951605 C269.790606,248.951605 273.108731,264.541433 272.997253,264.975008 C272.885774,265.408582 269.613551,260.092583 269.672569,257.434583 C269.731588,254.776583 266.924952,246.563804 266.52494,246.073677 C266.124929,245.583549 263.370754,231.470388 263.370754,231.470388 C263.370754,231.470388 261.141183,225.488317 259.705078,223.51524 C258.268972,221.542162 256.498431,217.803368 255.770541,217.143581 C255.236387,216.701884 254.640445,216.333872 254,216.050219 L254.098363,215.365297 Z" id="Path" fill="#000000" opacity="0.1"></path>
                <path d="M255.064418,215.365297 C255.064418,215.365297 258.581663,213.480191 262.517626,218.274645 C262.517626,218.274645 265.390687,219.864417 266.234568,220.254006 C267.078449,220.643595 268.031841,230.842019 268.031841,230.842019 C268.031841,230.842019 269.887091,235.2406 269.384627,237.754075 C268.882164,240.26755 270.846925,248.951605 270.846925,248.951605 C270.846925,248.951605 274.112937,264.541433 273.996984,264.975008 C273.881031,265.408582 270.679437,260.092583 270.730971,257.434583 C270.782506,254.776583 268.031841,246.563804 267.638889,246.073677 C267.245936,245.583549 264.546806,231.470388 264.546806,231.470388 C264.546806,231.470388 262.350139,225.538587 260.945818,223.546658 C259.541497,221.554729 257.789316,217.834786 257.080714,217.174999 C256.455252,216.698791 255.751772,216.32913 255,216.081638 L255.064418,215.365297 Z" id="Path" fill="#6C63FF"></path>
                <path d="M270,249.854032 C270,249.854032 276.502497,245.41815 279.644222,247.606779 C282.785948,249.795408 287.930368,252.90248 282.873566,255.149734 C277.816764,257.396987 270.819853,256.967078 270.819853,256.967078 L270,249.854032 Z" id="Path" fill="#FABDBD"></path>
                <path d="M265.636955,291.175 C264.608227,293.25625 263.758697,303.675 263.181282,307 C262.358299,305.66875 261.362756,304.08125 261.024271,303.58125 C260.247041,301.999924 259.571074,300.376184 259,298.71875 C259.663696,297.21875 261.46231,292.91875 261.46231,291.34375 C261.46231,289.41875 264.780788,287 264.780788,287 C265.997811,288.069365 266.343648,289.755799 265.636955,291.175 L265.636955,291.175 Z" id="Path" fill="#000000" opacity="0.1"></path>
                <path d="M265,199.183977 C264.840524,199.265108 264.673997,199.332135 264.502393,199.384264 C263.717705,199.59081 262.952156,199.071315 262.256783,198.658223 C261.561409,198.245131 260.598093,197.938441 259.992033,198.476713 C259.207345,199.177718 259.775128,200.673613 258.964922,201.349582 C258.454556,201.781451 257.644349,201.631236 257.051049,201.975479 C256.457748,202.319723 256.311018,203.102095 256.164288,203.765546 C256.017558,204.428997 255.736856,205.192592 255.067001,205.386621 C254.397145,205.580649 253.791086,205.155038 253.153128,205.173815 C253.019157,205.173815 252.859668,205.173815 252.770354,205.098708 C252.710951,205.012502 252.688071,204.907001 252.706558,204.804536 C252.785954,204.007468 252.712382,203.202861 252.489652,202.432385 C252.251893,201.649402 251.603953,201.051947 250.792685,200.867641 C249.618843,200.69239 248.630009,201.700085 247.941015,202.651449 C247.217167,203.652689 246.55875,204.697948 245.969726,205.780936 C245.937828,205.837267 245.90593,205.912374 245.867653,206 C245.292177,204.729192 244.996528,203.353541 245,201.962961 C245.026436,196.993424 248.763493,192.794652 253.779027,192.099315 C258.794562,191.403979 263.571123,194.422454 265,199.190236 L265,199.183977 Z" id="Path" fill="#000000" opacity="0.1"></path>
                <path d="M248.367428,202.261076 C249.059208,201.309026 250.052041,200.300604 251.23063,200.475982 C252.042936,200.660485 252.692617,201.255175 252.934459,202.035591 C253.158523,202.806558 253.230262,203.61222 253.145837,204.409453 C253.131309,204.514705 253.156346,204.621537 253.216296,204.7101 C253.305971,204.810316 253.466105,204.791525 253.600618,204.785262 C254.241155,204.785262 254.91372,205.179862 255.52223,204.99822 C256.130741,204.816579 256.483036,204.039907 256.623955,203.375977 C256.764873,202.712047 256.925007,201.947902 257.514302,201.584619 C258.103596,201.221337 258.904268,201.377924 259.435914,200.958271 C260.249396,200.281814 259.679318,198.778577 260.467179,198.083329 C261.07569,197.544669 262.042901,197.85158 262.741087,198.264971 C263.439272,198.678361 264.207917,199.19823 264.995778,198.991535 C265.256402,198.900654 265.510976,198.793968 265.758018,198.672097 C267.007066,198.208599 268.62122,198.997799 269.639675,198.164755 C270.010938,197.799928 270.278135,197.346471 270.414725,196.849422 C270.697116,196.181939 270.886697,195.48044 270.978398,194.763681 C271.070054,194.03721 270.86778,193.304473 270.414725,192.721784 C269.774187,191.957638 268.62122,191.76347 267.769305,191.199756 C267.078814,190.668538 266.505717,190.005857 266.084692,189.251811 C265.664068,188.497492 265.108712,187.822916 264.444916,187.260022 C263.758565,186.695542 262.80831,186.550731 261.978847,186.884213 C261.733963,187.05255 261.460807,187.177624 261.17177,187.253758 C260.857622,187.260856 260.548187,187.178135 260.281423,187.015746 C257.373383,185.675359 253.984941,185.913372 250.795064,186.314235 C249.508247,186.413396 248.245653,186.711482 247.054326,187.197387 C245.851089,187.694779 244.929516,188.680565 244.530609,189.89695 C244.274394,190.861528 244.47296,191.90753 244.159097,192.85958 C243.947719,193.485929 243.518559,194.055907 243.262344,194.688519 C242.583375,196.417242 243.396857,198.321342 243.742748,200.144017 C244.120665,202.135806 243.928503,204.290446 244.793229,206.175756 C244.966174,206.545302 245.15193,207.190441 245.58109,206.946165 C245.894953,206.764524 246.221627,205.693468 246.381762,205.386557 C246.977965,204.306174 247.641088,203.262404 248.367428,202.261076 Z" id="Path" fill="#3F3D56"></path>
                <path d="M231.469619,234.688344 L230,239.002852 C230,239.002852 233.481004,252.390705 235.11253,255.204794 C236.744056,258.018884 239.1353,261.644358 239.1353,261.644358 C241.867151,262.912604 244.904426,263.302967 247.853379,262.764842 C252.530005,261.811787 266.180024,259.281038 266.180024,259.281038 C266.837202,259.403864 267.506605,259.144277 267.92364,258.604884 C268.54636,257.703345 271.622596,257.252576 271.622596,257.252576 C271.622596,257.252576 275.209462,251.856221 270.806833,249.602374 C270.806833,249.602374 270.265067,250.84521 267.92364,249.995187 C265.582213,249.145165 264.87854,250.671341 264.87854,250.671341 C264.87854,250.671341 261.067494,251.463408 258.950247,251.180067 C256.832999,250.896726 251.552335,250.787254 251.004341,250.336484 C250.867405,250.209779 250.687319,250.144671 250.503869,250.155546 C250.32042,250.166421 250.148708,250.252383 250.026671,250.39444 C249.39613,250.159192 248.808689,249.815174 248.289282,249.376989 C247.853379,248.874703 247.255567,249.943671 247.255567,249.943671 C247.255567,249.943671 246.489622,249.492901 246.707574,248.932659 C246.925526,248.372417 246.003901,246.228042 246.003901,246.228042 C245.758148,245.409379 245.702675,244.542301 245.841993,243.697294 C246.109763,242.57037 244.478237,238.545643 244.478237,238.545643 C244.458707,237.862272 244.532074,237.17945 244.696189,236.51718 C244.970186,235.506168 242.628759,233.477706 242.628759,233.477706 C242.628759,233.477706 240.343377,222.008842 235.504844,225.750229 C230.66631,229.491616 231.469619,234.688344 231.469619,234.688344 Z" id="Path" fill="#000000" opacity="0.1"></path>
                <path d="M230.469193,234.687966 L229,239.002306 C229,239.002306 232.479996,252.389637 234.11105,255.203617 C235.742103,258.017596 238.138881,261.64293 238.138881,261.64293 C240.869311,262.91345 243.906396,263.303887 246.854434,262.76337 C251.535932,261.810352 265.181999,259.279702 265.181999,259.279702 C265.838986,259.402523 266.508195,259.142946 266.92511,258.603574 C267.547649,257.70207 270.622995,257.251318 270.622995,257.251318 C270.622995,257.251318 274.208823,251.855174 269.807468,249.601415 C269.807468,249.601415 269.259633,250.844202 266.92511,249.994213 C264.590586,249.144223 263.874666,250.670341 263.874666,250.670341 C263.874666,250.670341 260.070949,251.462376 257.948089,251.179046 C255.825229,250.895716 250.552319,250.786248 250.01071,250.335496 C249.873814,250.208796 249.693779,250.143691 249.510383,250.154565 C249.326987,250.165439 249.155325,250.251398 249.033323,250.39345 C248.400825,250.158755 247.81142,249.814733 247.290212,249.376039 C246.854434,248.873772 246.256796,249.942698 246.256796,249.942698 C246.256796,249.942698 245.497298,249.491946 245.715187,248.931726 C245.933076,248.371506 245.005492,246.227215 245.005492,246.227215 C244.763229,245.407931 244.707826,244.54172 244.843632,243.696565 C245.117549,242.569685 243.486495,238.545114 243.486495,238.545114 C243.463286,237.861621 243.53669,237.178284 243.704384,236.516731 C243.972076,235.505759 241.637553,233.477375 241.637553,233.477375 C241.637553,233.477375 239.352833,222.008959 234.5157,225.7502 C229.678568,229.491441 230.469193,234.687966 230.469193,234.687966 Z" id="Path" fill="#6C63FF"></path>
                <path d="M244,247 C244,247 238.541008,247.994943 240.377678,248.836381 C242.214348,249.677819 244,247 244,247 Z" id="Path" fill="#000000" opacity="0.1"></path>
                <g id="Group" opacity="0.1" transform="translate(243.000000, 194.000000)" fill="#000000">
                    <path d="M10.382,7.66181818 C10.1434415,6.86601274 9.48766665,6.2598457 8.66777778,6.07727273 C7.482,5.89909091 6.48311111,6.92363636 5.78711111,7.88454545 C5.0563043,8.90406465 4.38914012,9.96664286 3.78933333,11.0663636 C3.60888889,11.3972727 3.29955556,12.4663636 2.98377778,12.6509091 C2.552,12.8990909 2.33933333,12.2372727 2.19111111,11.8618182 C1.32111111,9.95272727 1.54666667,7.75727273 1.13422222,5.73363636 C0.829704852,4.55674147 0.586643515,3.3651698 0.406,2.16363636 C0.277111111,3.61454545 0.857111111,5.14181818 1.13422222,6.61818182 C1.51444444,8.64181818 1.32111111,10.8309091 2.19111111,12.7463636 C2.36511111,13.1218182 2.552,13.7772727 2.98377778,13.5290909 C3.29955556,13.3445455 3.62822222,12.2563636 3.78933333,11.9509091 C4.38766774,10.8503478 5.05488715,9.7876816 5.78711111,8.76909091 C6.48311111,7.80181818 7.482,6.77727273 8.66777778,6.96181818 C9.48766665,7.14439116 10.1434415,7.75055819 10.382,8.54636364 C10.5208875,8.95716312 10.59691,9.38613049 10.6075556,9.81909091 C10.6721924,9.09237764 10.5956349,8.36016159 10.382,7.66181818 Z" id="Path"></path>
                    <path d="M27.9688889,2.40545455 C27.8329781,2.90921629 27.5638575,3.3682322 27.1891111,3.73545455 C26.1644444,4.58181818 24.5404444,3.78636364 23.2837778,4.25727273 C23.026,4.35272727 22.7875556,4.50545455 22.5168889,4.58181818 C21.7242222,4.78545455 20.9508889,4.26363636 20.2484444,3.84363636 C19.546,3.42363636 18.5728889,3.10545455 17.9606667,3.65272727 C17.168,4.36545455 17.7415556,5.88636364 16.9231111,6.57363636 C16.4075556,7.01272727 15.5891111,6.86 14.9897778,7.21 C14.3904444,7.56 14.2422222,8.34909091 14.094,9.02363636 C13.9457778,9.69818182 13.6622222,10.4745455 12.9855556,10.6718182 C12.3088889,10.8690909 11.6966667,10.4363636 11.0522222,10.4618182 C10.9168889,10.4618182 10.7557778,10.4618182 10.6655556,10.3854545 C10.6432939,10.3623609 10.6277152,10.3337918 10.6204444,10.3027273 C10.6204444,10.5254545 10.6204444,10.7481818 10.6204444,10.9709091 C10.6068365,11.0757823 10.6320074,11.1819824 10.6913333,11.27 C10.7815556,11.3718182 10.9426667,11.3527273 11.078,11.3527273 C11.7224444,11.3527273 12.3991111,11.7472727 13.0113333,11.5627273 C13.6235556,11.3781818 13.978,10.5954545 14.1197778,9.91454545 C14.2615556,9.23363636 14.4226667,8.47 15.0155556,8.10090909 C15.6084444,7.73181818 16.414,7.89090909 16.9488889,7.46454545 C17.7673333,6.77727273 17.1937778,5.25636364 17.9864444,4.54363636 C18.5986667,3.99636364 19.5717778,4.30818182 20.2742222,4.72818182 C20.9766667,5.14818182 21.75,5.67636364 22.5426667,5.46636364 C22.8036959,5.37346844 23.0596695,5.26726514 23.3095556,5.14818182 C24.5662222,4.67727273 26.1902222,5.47272727 27.2148889,4.62636364 C27.5884128,4.25821158 27.8573307,3.79954145 27.9946667,3.29636364 C28.2780203,2.61574822 28.4687196,1.90103354 28.5617778,1.17090909 C28.5907599,0.923552301 28.5907599,0.673720426 28.5617778,0.426363636 C28.438115,1.10550381 28.2392935,1.76917923 27.9688889,2.40545455 L27.9688889,2.40545455 Z" id="Path"></path>
                </g>
                <ellipse id="Oval" fill="#6C63FF" cx="161" cy="355" rx="26" ry="5"></ellipse>
                <ellipse id="Oval" fill="#3F3D56" cx="160" cy="354" rx="3" ry="4"></ellipse>
                <ellipse id="Oval" fill="#3F3D56" cx="160" cy="348" rx="3" ry="4"></ellipse>
                <ellipse id="Oval" fill="#3F3D56" cx="160" cy="344" rx="3" ry="4"></ellipse>
                <ellipse id="Oval" fill="#3F3D56" cx="160" cy="339" rx="3" ry="4"></ellipse>
                <ellipse id="Oval" fill="#3F3D56" cx="160" cy="334" rx="3" ry="4"></ellipse>
                <ellipse id="Oval" fill="#3F3D56" cx="160" cy="329" rx="3" ry="4"></ellipse>
                <ellipse id="Oval" fill="#3F3D56" cx="160" cy="325" rx="3" ry="4"></ellipse>
                <path d="M171.877164,291.160798 C172.290969,290.640088 172.666756,290.091003 173.001685,289.517694 L165.0538,288.232059 L173.649714,288.294773 C175.317158,284.713665 175.418255,280.613034 173.929256,276.9561 L162.391799,282.863749 L173.052511,275.131126 C170.332168,270.501304 165.222061,267.756795 159.806425,268.016991 C154.390789,268.277186 149.574846,271.498594 147.32285,276.367313 C145.070854,281.236033 145.759227,286.93826 149.107204,291.148255 C148.461993,291.955917 147.908095,292.830739 147.455366,293.757153 L157.773004,299.050206 L146.769217,295.400257 C145.192563,299.981878 146.07247,305.0399 149.107204,308.839845 C144.431407,314.706679 145.109153,323.135743 150.663956,328.201033 C156.21876,333.266322 164.784669,333.266322 170.339472,328.201033 C175.894275,323.135743 176.572021,314.706679 171.896224,308.839845 C176.031053,303.648882 176.031053,296.339218 171.896224,291.148255 L171.877164,291.160798 Z" id="Path" fill="#6C63FF"></path>
                <path d="M146,300.209209 C145.995443,303.398321 147.090255,306.495371 149.106791,308.997792 C144.430919,314.824616 145.108676,323.196195 150.663568,328.226941 C156.21846,333.257686 164.784506,333.257686 170.339398,328.226941 C175.89429,323.196195 176.572046,314.824616 171.896174,308.997792 C173.840292,306.581087 146,298.614682 146,300.209209 Z" id="Path" fill="#000000" opacity="0.1"></path>
                <ellipse id="Oval" fill="#6C63FF" cx="591" cy="401" rx="26" ry="5"></ellipse>
                <ellipse id="Oval" fill="#3F3D56" cx="591" cy="399" rx="3" ry="4"></ellipse>
                <ellipse id="Oval" fill="#3F3D56" cx="591" cy="394" rx="3" ry="4"></ellipse>
                <ellipse id="Oval" fill="#3F3D56" cx="591" cy="389" rx="3" ry="4"></ellipse>
                <ellipse id="Oval" fill="#3F3D56" cx="591" cy="384" rx="3" ry="4"></ellipse>
                <ellipse id="Oval" fill="#3F3D56" cx="591" cy="380" rx="3" ry="4"></ellipse>
                <ellipse id="Oval" fill="#3F3D56" cx="591" cy="375" rx="3" ry="4"></ellipse>
                <ellipse id="Oval" fill="#3F3D56" cx="591" cy="370" rx="3" ry="4"></ellipse>
                <path d="M601.877164,337.160798 C602.290969,336.640088 602.666756,336.091003 603.001685,335.517694 L595.0538,334.232059 L603.649714,334.294773 C605.317158,330.713665 605.418255,326.613034 603.929256,322.9561 L592.391799,328.863749 L603.052511,321.131126 C600.332168,316.501304 595.222061,313.756795 589.806425,314.016991 C584.390789,314.277186 579.574846,317.498594 577.32285,322.367313 C575.070854,327.236033 575.759227,332.93826 579.107204,337.148255 C578.461993,337.955917 577.908095,338.830739 577.455366,339.757153 L587.773004,345.050206 L576.769217,341.400257 C575.192563,345.981878 576.07247,351.0399 579.107204,354.839845 C574.431407,360.706679 575.109153,369.135743 580.663956,374.201033 C586.21876,379.266322 594.784669,379.266322 600.339472,374.201033 C605.894275,369.135743 606.572021,360.706679 601.896224,354.839845 C606.031053,349.648882 606.031053,342.339218 601.896224,337.148255 L601.877164,337.160798 Z" id="Path" fill="#6C63FF"></path>
                <path d="M576,346.209209 C575.995443,349.398321 577.090255,352.495371 579.106791,354.997792 C574.430919,360.824616 575.108676,369.196195 580.663568,374.226941 C586.21846,379.257686 594.784506,379.257686 600.339398,374.226941 C605.89429,369.196195 606.572046,360.824616 601.896174,354.997792 C603.840292,352.581087 576,344.614682 576,346.209209 Z" id="Path" fill="#000000" opacity="0.1"></path>
                <circle id="Oval" fill="#6C63FF" opacity="0.382040551" cx="254.5" cy="59.5" r="9.5"></circle>
                <circle id="Oval" fill="#6C63FF" opacity="0.382040551" cx="289" cy="16" r="16"></circle>
                <circle id="Oval" fill="#6C63FF" opacity="0.382040551" cx="268" cy="94" r="16"></circle>
                <circle id="Oval" fill="#6C63FF" opacity="0.382040551" cx="606.5" cy="174.5" r="9.5"></circle>
                <circle id="Oval" fill="#6C63FF" opacity="0.382040551" cx="573" cy="132" r="16"></circle>
                <circle id="Oval" fill="#6C63FF" opacity="0.382040551" cx="594" cy="210" r="16"></circle>
                <circle id="Oval" fill="#6C63FF" opacity="0.382040551" cx="62.5" cy="191.5" r="5.5"></circle>
                <circle id="Oval" fill="#6C63FF" opacity="0.382040551" cx="86.5" cy="171.5" r="9.5"></circle>
                <circle id="Oval" fill="#6C63FF" opacity="0.382040551" cx="43.5" cy="184.5" r="9.5"></circle>
                <circle id="Oval" fill="#6C63FF" opacity="0.382040551" cx="467.5" cy="158.5" r="5.5"></circle>
                <circle id="Oval" fill="#6C63FF" opacity="0.382040551" cx="489.5" cy="138.5" r="9.5"></circle>
                <circle id="Oval" fill="#6C63FF" opacity="0.382040551" cx="446.5" cy="152.5" r="9.5"></circle>
                <circle id="Oval" fill="#6C63FF" opacity="0.382040551" cx="136.5" cy="89.5" r="22.5"></circle>
                <ellipse id="Oval" fill="#6C63FF" opacity="0.382040551" cx="266.5" cy="164" rx="13.5" ry="13"></ellipse>
                <ellipse id="Oval" fill="#6C63FF" opacity="0.382040551" cx="396.5" cy="250" rx="13.5" ry="13"></ellipse>
                <path d="M160,372.5 C201.820703,372.5 235.5,365.764141 235.5,357 C235.5,348.235859 201.820703,341.5 160,341.5 C118.179297,341.5 84.5,348.235859 84.5,357 C84.5,365.764141 118.179297,372.5 160,372.5 Z M160,371.5 L157.54794,371.49201 C117.652262,371.231733 85.5,364.648314 85.5,357 C85.5,349.195598 118.97799,342.5 160,342.5 C201.02201,342.5 234.5,349.195598 234.5,357 C234.5,364.804402 201.02201,371.5 160,371.5 Z" id="Oval" fill="#B1AFBA"></path>
                <path d="M592,417.5 C633.820703,417.5 667.5,410.764141 667.5,402 C667.5,393.235859 633.820703,386.5 592,386.5 C550.179297,386.5 516.5,393.235859 516.5,402 C516.5,410.764141 550.179297,417.5 592,417.5 Z M592,416.5 L589.54794,416.49201 C549.652262,416.231733 517.5,409.648314 517.5,402 C517.5,394.195598 550.97799,387.5 592,387.5 C633.02201,387.5 666.5,394.195598 666.5,402 C666.5,409.804402 633.02201,416.5 592,416.5 Z" id="Oval" fill="#444053"></path>
                <path d="M75,417.5 C116.820703,417.5 150.5,410.764141 150.5,402 C150.5,393.235859 116.820703,386.5 75,386.5 C33.1792974,386.5 -0.5,393.235859 -0.5,402 C-0.5,410.764141 33.1792974,417.5 75,417.5 Z M75,416.5 L72.5479397,416.49201 C32.6522617,416.231733 0.5,409.648314 0.5,402 C0.5,394.195598 33.9779901,387.5 75,387.5 C116.02201,387.5 149.5,394.195598 149.5,402 C149.5,409.804402 116.02201,416.5 75,416.5 Z" id="Oval" fill="#B1AFBA"></path>
            </g>
        </g>
    </g>
</svg>