<svg width="24" height="24" fill="none"><path fill-rule="evenodd" clip-rule="evenodd" d="M16.808 9.849v.04h-.245a.594.594 0 00-.614.594v5.254c0 .337.266.595.614.595h.549a1.556 1.556 0 01-1.43.912h-1.126c-.264-.897-1.128-1.566-2.147-1.566-1.228 0-2.23.971-2.23 2.16 0 1.19 1.002 2.162 2.25 2.162.614 0 1.208-.238 1.617-.674.256-.248.432-.559.523-.892h1.114c1.333 0 2.45-.914 2.72-2.129.908-.15 1.597-.913 1.597-1.837v-2.716c0-1.03-.86-1.864-1.923-1.864h-.041v-.04C18.036 6.619 15.335 4 12 4 8.665 4 5.964 6.617 5.964 9.849v.04h-.04C4.858 9.888 4 10.72 4 11.751v2.716c0 1.031.86 1.864 1.923 1.864h1.514a.594.594 0 00.614-.595v-5.254a.594.594 0 00-.614-.595h-.245v-.04C7.192 7.272 9.34 5.19 12 5.19c2.66 0 4.808 2.081 4.808 4.659zm-4.399 7.018c-.552 0-1.002.437-1.002.972 0 .535.47.971 1.023.971.286 0 .552-.099.736-.297a.85.85 0 00.246-.654v-.02c0-.535-.45-.972-1.003-.972z" fill="#000" class="fill-color"></path></svg>