<svg width="24" height="24" viewBox="0 0 24 24" fill="none" xmlns="http://www.w3.org/2000/svg">
<path d="M19.1379 3C20.1663 3 21 3.83368 21 4.86207V18.2069C21 19.2353 20.1663 20.069 19.1379 20.069H4.86207C3.83368 20.069 3 19.2353 3 18.2069V4.86207C3 3.83368 3.83368 3 4.86207 3H19.1379ZM15.3782 6.10345H7.65517L7.58786 6.10488C6.76209 6.14013 6.10345 6.82073 6.10345 7.65517V15.4138L6.10488 15.4811C6.14013 16.3069 6.82073 16.9655 7.65517 16.9655H15.3782L15.4455 16.9641C16.2713 16.9288 16.93 16.2482 16.93 15.4138L16.9298 13.6883L18.5172 13.6884V11.9058L16.9298 11.9057L16.93 7.65517L16.9285 7.58786C16.8933 6.76209 16.2127 6.10345 15.3782 6.10345ZM14.2641 7.89668L14.3086 7.89848C14.5877 7.92114 14.8072 8.15483 14.8072 8.43979L14.8071 11.9057L13.0943 11.9058V13.6884L14.8071 13.6883L14.8072 14.5427L14.8054 14.5873C14.7827 14.8664 14.549 15.0858 14.2641 15.0858H8.80577L8.76123 15.084C8.48211 15.0614 8.26267 14.8277 8.26267 14.5427V8.43979L8.26447 8.39524C8.28712 8.11613 8.52082 7.89668 8.80577 7.89668H14.2641Z" class="fill-color" fill="black"/>
</svg>
