 <svg width="20" height="24" fill="none">
                        <path
                          d="M12 8.77A1.385 1.385 0 1012 6a1.385 1.385 0 000 2.77zM12 13.385a1.385 1.385 0 100-2.77 1.385 1.385 0 000 2.77zM8.77 16.615a1.385 1.385 0 11-2.77 0 1.385 1.385 0 012.77 0zM13.385 16.615a1.385 1.385 0 11-2.77 0 1.385 1.385 0 012.77 0zM8.77 12A1.385 1.385 0 116 12a1.385 1.385 0 012.77 0zM8.77 7.385a1.385 1.385 0 11-2.77 0 1.385 1.385 0 012.77 0z"
                          className=""
                        ></path>
</svg>