<svg width="225px" height="32px" viewBox="0 0 398 56" version="1.1" xmlns="http://www.w3.org/2000/svg" xmlns:xlink="http://www.w3.org/1999/xlink">
    <!-- Generator: Sketch 61.2 (89653) - https://sketch.com -->
    <title>Qube Slate</title>
    <desc>Created with Sketch.</desc>
    <g id="Final-Logos" stroke="none" stroke-width="1" fill="none" fill-rule="evenodd">
        <g id="Qube_Slate_New_Logo_Final" transform="translate(-41.000000, -485.000000)" fill="#052f66" fill-rule="nonzero">
            <path d="M94.444523,485 C99.9615111,485 104.433914,489.477153 104.433914,495 C104.433914,495.561654 104.386646,496.122309 104.292611,496.676019 L98.1788653,532.676019 C97.3624867,537.483158 93.2017173,541 88.3307771,541 L50.9893906,541 C45.4724025,541 41,536.522847 41,531 C41,530.438346 41.0472679,529.877691 41.1413023,529.323981 L47.2550482,493.323981 C48.0714269,488.516842 52.2321963,485 57.1031365,485 L94.444523,485 Z M316.904598,498 C318.63531,498 319.234137,498.693878 318.953761,500.376531 L314.677248,524.620773 L331.0877,524.620773 C331.915248,524.620773 332.586108,525.292346 332.586108,526.120773 C332.586108,526.209056 332.578323,526.297167 332.562842,526.38408 L331.925293,529.963455 C331.755353,530.917546 330.926547,531.612379 329.958437,531.612379 L308.631376,531.612379 C307.049505,531.577685 306.419526,531.134285 306.686055,529.583469 C306.962969,527.963265 307.271036,526.346531 307.554873,524.726327 C308.992518,516.631089 310.42324,508.23585 311.84704,500.140612 C312.130876,498.534286 312.708934,498.006939 314.335804,498 L316.904598,498 Z M162.046808,498.027755 C163.462531,498.052041 164.064819,498.780612 163.815596,500.216939 L160.246867,520.773061 C159.810727,523.27449 160.752235,524.589377 163.258307,524.631009 C166.432433,524.68305 170.229424,524.658764 173.400089,524.606724 C175.179261,524.578968 176.332137,523.659592 176.709432,521.900612 C177.363641,518.857959 177.886317,515.784081 178.440145,512.717143 C179.208581,508.428979 179.942403,504.130408 180.714301,499.842245 C180.953139,498.513469 181.569273,498.038163 182.929612,498.024285 L184.489989,498.011275 C184.931606,498.010408 185.376252,498.013877 186.068537,498.024286 C187.453107,498.045102 188.055395,498.666122 187.837325,500.046939 C187.595025,501.585612 187.335419,503.121683 187.068889,504.656888 L186.258916,509.261632 C185.400482,514.118775 184.583586,518.975918 183.64554,523.833061 C183.105558,526.632857 181.952903,529.123877 179.228762,530.518571 C177.598431,531.351224 175.819258,531.559388 174.036625,531.614898 L173.104811,531.632445 C171.661213,531.652918 170.011169,531.647068 168.154678,531.614898 C165.101701,531.614898 162.738167,531.82653 159.699036,531.614898 C155.99185,531.354694 153.051298,528.998979 152.708617,525.279796 C152.626441,523.926184 152.719519,522.567605 152.985531,521.237959 C154.203953,514.125714 155.481218,507.013469 156.730793,499.922041 C156.959247,498.627959 157.589226,498.045102 158.894183,498.027755 L160.469198,498.010794 C160.903856,498.010408 161.338947,498.015612 162.046808,498.027755 Z M357.920019,498 C358.735964,498 359.469915,498.496704 359.773986,499.254679 L372.255482,530.36808 C372.461078,530.880582 372.212723,531.462893 371.700764,531.668708 C371.584186,531.715574 371.459823,531.740006 371.334198,531.740724 L350.968024,531.845796 C350.416334,531.848788 349.96655,531.403634 349.963402,530.851359 C349.96269,530.726374 349.985389,530.602363 350.030324,530.485752 L352.064216,525.466927 C352.212845,525.081219 352.583245,524.826829 352.996217,524.826829 L362.495939,524.826829 L354.945569,505.775 L354.628299,505.775 L344.673966,530.480468 C344.369161,531.236957 343.635971,531.732336 342.821129,531.732336 L337.994448,531.732336 C337.442749,531.732336 336.995509,531.284621 336.995509,530.732336 C336.995509,530.602948 337.020592,530.474789 337.069367,530.354968 L349.733059,499.245262 C350.039575,498.492272 350.770973,498 351.58322,498 L357.920019,498 Z M196.22654,498.027755 L217.943519,498.027755 L218.624579,498.0599 C219.117059,498.090702 219.303288,498.135271 219.64747,498.276898 C222.205463,499.057511 223.330418,501.4 223.01889,504.560612 C222.818011,506.310604 222.519865,507.567245 222.125842,509.28394 C221.679318,511.396797 220.554805,513.612245 218.252958,514.333877 C221.022098,515.700816 220.618073,518.834219 220.199241,521.498709 C219.969528,522.949544 219.725512,523.697448 219.441186,525.010051 L219.244051,525.947567 C218.372619,529.961688 217.338123,531.578717 213.002017,531.625306 L210.538516,531.644677 C206.540163,531.664433 203.002279,531.628775 198.770687,531.646122 L190.722875,531.646122 C188.992162,531.646122 188.421027,530.952245 188.71871,529.273061 C190.027128,521.883265 191.340162,514.493469 192.657811,507.103673 C193.083566,504.716734 193.478169,502.326326 193.921231,499.942857 C194.187761,498.496122 194.762357,498.027755 196.22654,498.027755 Z M256.670642,498.017347 C258.38961,498.017347 258.972414,498.662547 258.726315,500.264025 L258.231744,503.06486 C258.00329,504.352003 257.449462,504.865473 256.134121,504.893228 L255.453624,504.901171 C253.84783,504.913489 251.472982,504.896267 249.985504,504.893573 L236.414088,504.893228 L236.087181,506.656338 C235.815968,508.100938 235.545765,509.509668 235.261434,511.075849 L244.202294,511.075849 L244.544583,511.081851 C245.94193,511.135214 246.237291,511.561591 246.00689,513.041043 L245.978005,513.216461 C245.836087,514.038706 245.69763,515.585623 245.57648,516.414807 C245.393024,517.663786 244.974192,518.04195 243.683081,518.04195 L235.292587,518.04195 L234.143394,518.069705 C233.707254,520.550317 233.288422,522.104414 232.84536,524.612782 L251.833108,524.617792 C252.183751,524.621261 252.502233,524.627132 252.643837,524.637067 C253.716878,524.720333 254.297493,525.355231 254.155575,526.441149 C254.021733,527.470401 253.805722,528.705238 253.609574,529.727551 C253.346506,531.115306 252.723449,531.635714 251.280035,531.642653 L226.761345,531.642653 C225.266941,531.605957 224.662216,530.966225 224.83639,529.547652 L224.893154,529.177648 C225.301751,526.719676 228.499897,508.236313 229.934234,500.133673 C230.218071,498.537755 230.79959,498.017347 232.443767,498.017347 L256.670642,498.017347 Z M401.097379,497.654524 C403.156278,497.654524 403.707889,498.247105 403.378454,500.164039 L403.343844,500.353708 C403.156927,501.318197 402.997702,502.286157 402.807323,503.250646 C402.558101,504.482279 402.042348,504.919422 400.78239,504.922891 L389.969546,504.922891 L385.658688,529.418775 C385.347159,531.191632 384.796793,531.639183 382.976083,531.642653 L380.659266,531.642653 C379.053165,531.621836 378.412801,530.903673 378.679331,529.349387 C379.371616,525.338775 380.091592,521.331632 380.801184,517.32449 C381.280839,514.603498 381.771598,511.693853 382.256757,508.86506 L382.835191,505.526565 C382.869805,505.360034 382.869805,505.186565 382.887112,504.915953 L373.440884,504.915953 C372.125542,504.915953 371.544023,504.222075 371.710171,502.924524 C371.879781,501.724116 372.087467,500.527177 372.322844,499.337177 C372.55822,498.147177 373.23666,497.661463 374.503541,497.654524 L401.097379,497.654524 Z M300.876102,497.930377 C303.358747,497.930377 305.371328,499.945095 305.371328,502.430377 C305.371328,502.591279 305.362707,502.752007 305.345521,502.911871 L305.313326,503.150932 L304.663696,507.103502 C304.58429,507.586632 304.167115,507.941154 303.678009,507.941154 L298.587358,507.941154 C298.035659,507.941154 297.588419,507.493439 297.588419,506.941154 C297.588419,506.884996 297.593145,506.828938 297.602546,506.773574 L297.717438,506.096957 C297.809892,505.552482 297.443925,505.03607 296.900028,504.943518 C296.844723,504.934107 296.788724,504.929377 296.732625,504.929377 L283.108989,504.929377 C282.156763,504.929377 281.336876,505.602124 281.149974,506.536819 L280.648784,509.043266 C280.540497,509.584807 280.891254,510.111691 281.432221,510.220093 L281.534523,510.235129 L297.747843,511.765417 L298.018234,511.80255 C300.940203,512.278117 302.946698,514.979241 302.590667,517.894845 L302.559512,518.113886 L301.019852,527.593931 C300.677541,529.701621 298.90673,531.493459 296.79514,531.592321 L296.582885,531.597281 L274.773148,531.597281 C274.483385,531.597281 274.1943,531.569234 273.909929,531.513532 C271.543101,531.049918 270.152538,528.580232 270.501975,526.216487 L271.158319,522.51655 C271.243139,522.039337 271.657618,521.691727 272.141811,521.691727 L277.197464,521.691727 C277.749163,521.691727 278.196403,522.139443 278.196403,522.691727 C278.196403,522.742775 278.192498,522.793747 278.184723,522.844198 L278.083856,523.498714 C277.999738,524.044541 278.373558,524.555285 278.918807,524.639492 C278.969204,524.647275 279.020122,524.651184 279.071115,524.651184 L292.688793,524.651184 C293.664228,524.651184 294.497064,523.94606 294.658961,522.983132 L295.222445,519.631654 C295.314013,519.08703 294.947206,518.571215 294.403159,518.47955 L294.332016,518.47018 L278.371914,516.949424 C275.424908,516.668518 273.054186,514.106275 273.21665,511.173473 L273.233253,510.952848 L273.250161,510.798281 L273.271426,510.644254 L274.883093,501.751339 C275.207383,499.624614 276.985946,498.035706 279.113018,497.935409 L279.326846,497.930377 L300.876102,497.930377 Z M436.090493,497.954524 C437.809461,497.954524 438.392265,498.599724 438.146166,500.201202 L437.651595,503.002038 C437.423141,504.28918 436.869313,504.80265 435.553972,504.830405 L434.873475,504.838348 C433.267681,504.850667 430.892833,504.833444 429.405355,504.83075 L415.833939,504.830405 L414.681285,511.120851 L423.622145,511.120851 L423.964434,511.126853 C425.361781,511.180216 425.657142,511.606593 425.426741,513.086045 L425.397856,513.261463 C425.255938,514.083708 425.117481,515.47712 424.996331,516.306304 C424.812875,517.555283 424.394043,517.933447 423.102932,517.933447 L414.712438,517.933447 L413.563245,517.961202 C413.127105,520.441814 412.708273,522.041591 412.265211,524.549959 L431.252959,524.55497 C431.603602,524.558439 431.922084,524.564309 432.063688,524.574245 C433.136729,524.65751 433.717344,525.292408 433.575426,526.378326 C433.441584,527.407578 433.225573,528.642415 433.029425,529.664728 C432.766357,531.052483 432.1433,531.572891 430.699886,531.57983 L406.181196,531.57983 C404.686792,531.543135 404.082067,530.903402 404.256241,529.484829 L404.313005,529.114826 C404.721602,526.656854 407.919748,508.17349 409.354085,500.070851 C409.637922,498.474932 410.219441,497.954524 411.863618,497.954524 L436.090493,497.954524 Z M144.207295,497.917784 C145.44173,497.917784 146.61228,498.550013 147.401559,499.501337 C148.141507,500.393204 148.474474,501.551009 148.327576,502.694613 L148.291777,502.923061 L146.097233,514.746734 L150.124685,514.746734 C150.541385,514.747261 150.935689,514.935865 151.198204,515.260222 C151.427905,515.544035 151.535329,515.90537 151.501369,516.265126 L151.478102,516.418979 L150.819617,520.273469 C150.694117,520.874043 150.192275,521.315321 149.592629,521.370827 L149.462738,521.376734 L144.864966,521.376734 L143.605007,528.162857 C143.252263,530.067613 141.639226,531.467014 139.726558,531.561259 L139.520526,531.566326 L115.370612,531.566326 C114.129207,531.565749 112.95313,531.008677 112.164547,530.04771 C111.42525,529.146803 111.099183,527.979453 111.258219,526.830989 L115.743073,501.361836 C116.112014,499.476776 117.715996,498.022066 119.612857,497.923152 L119.81717,497.917784 L144.207295,497.917784 Z M89.9103418,499.340479 C89.6580789,497.762882 88.2199616,496.670725 86.6521933,496.829541 L86.4775169,496.852374 L62.6479883,500.670892 L62.4307349,500.710625 C60.5649581,501.094493 59.078536,502.509878 58.6019756,504.35553 L58.549676,504.579035 L57.3838858,510.128317 L57.3364354,510.400581 C57.3195399,510.522207 57.3082459,510.644565 57.3025939,510.767264 L57.2983523,510.951521 L57.3032424,511.151161 C57.4038057,513.199281 59.0431842,514.842428 61.0882877,514.946306 L61.2941085,514.951521 L81.845619,514.950662 L79.9895903,524 L60.6251567,524 L61.2260891,520.755103 L61.2550385,520.581154 C61.4688271,519.018291 60.429177,517.541058 58.8631206,517.233098 C57.2970642,516.925138 55.7764555,517.898904 55.3837863,519.426591 L55.3448531,519.598576 L54.2764608,525.228983 L54.2419282,525.431965 C53.93999,527.526461 55.3293432,529.512474 57.4270854,529.924988 C57.5962215,529.958248 57.7672413,529.9805 57.9390698,529.991639 L58.1972848,530 L81.6470818,530 L81.8518749,529.994799 C83.6169176,529.90499 85.1158687,528.660712 85.530765,526.940957 L85.5737803,526.740452 L88.182391,513.691973 L88.2145022,513.494877 C88.4944086,511.463518 87.1872084,509.544978 85.1966588,509.063917 L84.9953594,509.020652 L84.7503524,508.98229 L84.503559,508.959224 L84.2556925,508.951521 L63.7548327,508.950662 L64.2732821,506.485662 L87.4248762,502.77695 L87.5979444,502.74406 C89.1368983,502.405045 90.1626048,500.918076 89.9103418,499.340479 Z M140.656899,504.938775 L122.145095,504.938775 L118.703056,524.627551 L137.111305,524.627551 L137.7309,521.376734 L134.065228,521.376734 C133.647921,521.377252 133.252641,521.189092 132.989339,520.864593 C132.758949,520.580656 132.651111,520.218839 132.685062,519.858566 L132.70835,519.70449 L133.525246,515.85 C133.649732,515.254161 134.144923,514.814471 134.739457,514.753843 L134.868279,514.746734 L138.942399,514.746734 L140.656899,504.938775 Z M211.170923,517.939117 L197.897922,517.939117 C197.420246,520.669525 197.016268,521.797698 196.545514,524.483004 C196.619155,524.525234 196.698405,524.556773 196.780891,524.576677 L206.449744,524.569359 C207.524061,524.566919 208.617568,524.563667 209.749454,524.55933 C210.85711,524.55933 212.410714,524.077085 212.698013,522.959942 L212.822656,522.508986 C213.064928,521.672984 213.140474,521.653675 213.320468,520.496056 C213.590459,518.761362 212.929327,518.025852 211.170923,517.939117 Z M213.084056,504.87722 L200.109773,504.87722 C199.694402,507.260689 199.289416,508.621286 198.877506,510.987409 C199.000626,511.017988 199.12546,511.041159 199.25134,511.056797 L211.042022,511.045303 C211.597459,511.043613 212.137823,511.041674 212.657924,511.03945 C214.022026,511.03945 214.619721,510.633144 214.969014,509.404568 L215.206607,508.486976 C215.381347,507.798584 215.505863,507.235233 215.579366,506.395918 C215.683209,505.133061 215.105151,505.040281 213.831347,504.915383 C213.582716,504.894203 213.333475,504.881481 213.084056,504.87722 Z" id="Shape-Copy-4"></path>
        </g>
    </g>
</svg>