<?xml version="1.0" encoding="UTF-8"?>
<svg width="36px" height="32px" viewBox="0 0 64 56" version="1.1" xmlns="http://www.w3.org/2000/svg" xmlns:xlink="http://www.w3.org/1999/xlink">
    <!-- Generator: Sketch 61.2 (89653) - https://sketch.com -->
    <title>Qube Slate</title>
    <desc>Created with Sketch.</desc>
    <g id="Final-Logos" stroke="none" stroke-width="1" fill="none" fill-rule="evenodd">
        <path d="M53.444523,0 C58.9615111,0 63.4339136,4.4771525 63.4339136,10 C63.4339136,10.5616539 63.3866457,11.1223094 63.2926113,11.6760186 L57.1788653,47.6760186 C56.3624867,52.4831583 52.2017173,56 47.3307771,56 L9.98939056,56 C4.47240249,56 -3.19744231e-14,51.5228475 -3.19744231e-14,46 C-3.19744231e-14,45.4383461 0.0472679154,44.8776906 0.141302283,44.3239814 L6.25504824,8.3239814 C7.07142687,3.51684171 11.2321963,0 16.1031365,0 L53.444523,0 Z M45.6521933,11.8295409 L45.4775169,11.8523741 L21.6479883,15.6708925 L21.4307349,15.7106249 C19.5649581,16.094493 18.078536,17.5098782 17.6019756,19.3555302 L17.549676,19.5790352 L16.3838858,25.1283174 L16.3364354,25.4005806 C16.3195399,25.5222074 16.3082459,25.6445648 16.3025939,25.767264 L16.2983523,25.9515206 L16.3032424,26.151161 C16.4038057,28.1992815 18.0431842,29.8424275 20.0882877,29.9463057 L20.2941085,29.9515206 L40.845619,29.9506622 L38.9895903,39 L19.6251567,39 L20.2260891,35.7551026 L20.2550385,35.5811538 C20.4688271,34.0182907 19.429177,32.5410583 17.8631206,32.2330984 C16.2970642,31.9251385 14.7764555,32.8989042 14.3837863,34.426591 L14.3448531,34.5985765 L13.2764608,40.2289826 L13.2419282,40.4319652 C12.93999,42.526461 14.3293432,44.5124739 16.4270854,44.9249882 C16.5962215,44.9582482 16.7672413,44.9805001 16.9390698,44.9916392 L17.1972848,45 L40.6470818,45 L40.8518749,44.9947994 C42.6169176,44.9049897 44.1158687,43.6607123 44.530765,41.9409572 L44.5737803,41.7404525 L47.182391,28.6919731 L47.2145022,28.4948769 C47.4944086,26.4635183 46.1872084,24.5449776 44.1966588,24.0639171 L43.9953594,24.0206518 L43.7503524,23.98229 L43.503559,23.9592241 L43.2556925,23.9515206 L22.7548327,23.9506622 L23.2732821,21.4856622 L46.4248762,17.7769503 L46.5979444,17.7440597 C48.1368983,17.4050449 49.1626048,15.9180765 48.9103418,14.3404794 C48.6580789,12.7628824 47.2199616,11.6707248 45.6521933,11.8295409 Z" id="Combined-Shape" fill="#FFFFFF" fill-rule="nonzero"></path>
    </g>
</svg>