<svg width="24" height="24" viewBox="0 0 24 24" version="1.1" fill="none" xmlns="http://www.w3.org/2000/svg">
    <title>icon/chevron-down</title>
    <desc>Created with Sketch.</desc>
<path d="M11.7734 15.0625C12.0254 15.0625 12.2422 14.9629 12.4355 14.7695L16.8242 10.2695C16.9766 10.1172 17.0586 9.92969 17.0586 9.70703C17.0586 9.25 16.6953 8.88672 16.2441 8.88672C16.0215 8.88672 15.8105 8.97461 15.6465 9.13867L11.7793 13.123L7.90625 9.13867C7.74219 8.98047 7.53711 8.88672 7.30859 8.88672C6.85742 8.88672 6.49414 9.25 6.49414 9.70703C6.49414 9.92969 6.57617 10.1172 6.72852 10.2754L11.1172 14.7695C11.3223 14.9688 11.5273 15.0625 11.7734 15.0625Z" fill='#0a5ecc'/>
</svg>
